<?xml version="1.0" encoding="UTF-8" standalone="no"?>
<!DOCTYPE svg PUBLIC "-//W3C//DTD SVG 1.1//EN" "http://www.w3.org/Graphics/SVG/1.1/DTD/svg11.dtd">
<svg width="100%" height="100%" viewBox="0 0 105 380" version="1.1" xmlns="http://www.w3.org/2000/svg" xmlns:xlink="http://www.w3.org/1999/xlink" xml:space="preserve" xmlns:serif="http://www.serif.com/" style="fill-rule:evenodd;clip-rule:evenodd;stroke-linecap:round;stroke-linejoin:round;stroke-miterlimit:1.5;">
    <g id="background">
        <rect id="rect9" x="0" y="0" width="105" height="380" style="fill:white;"/>
    </g>
    <g id="graphics">
        <rect id="display-bg" x="0" y="56.113" width="105" height="86.3" style="fill:rgb(26,26,26);"/>
        <g>
            <path d="M83.003,300.206L57.861,300.206C53.461,300.206 49.861,303.806 49.861,308.206L49.861,337.539C49.861,341.939 53.461,345.539 57.861,345.539L83.003,345.539C87.402,345.539 91.003,341.939 91.003,337.539L91.003,308.206C91.003,303.806 87.402,300.206 83.003,300.206" style="fill-rule:nonzero;"/>
            <path d="M64.864,341.744C64.288,341.744 63.752,341.634 63.256,341.414C62.76,341.194 62.328,340.894 61.96,340.514C61.592,340.134 61.304,339.688 61.096,339.176C60.888,338.664 60.784,338.116 60.784,337.532C60.784,336.948 60.888,336.402 61.096,335.894C61.304,335.386 61.59,334.942 61.954,334.562C62.318,334.182 62.75,333.882 63.25,333.662C63.75,333.442 64.288,333.332 64.864,333.332C65.44,333.332 65.978,333.442 66.478,333.662C66.978,333.882 67.412,334.182 67.78,334.562C68.148,334.942 68.436,335.386 68.644,335.894C68.852,336.402 68.956,336.948 68.956,337.532C68.956,338.116 68.852,338.664 68.644,339.176C68.436,339.688 68.148,340.134 67.78,340.514C67.412,340.894 66.978,341.194 66.478,341.414C65.978,341.634 65.44,341.744 64.864,341.744ZM64.864,340.664C65.304,340.664 65.702,340.58 66.058,340.412C66.414,340.244 66.718,340.016 66.97,339.728C67.222,339.44 67.416,339.106 67.552,338.726C67.688,338.346 67.756,337.944 67.756,337.52C67.756,337.088 67.688,336.682 67.552,336.302C67.416,335.922 67.222,335.588 66.97,335.3C66.718,335.012 66.414,334.786 66.058,334.622C65.702,334.458 65.304,334.376 64.864,334.376C64.424,334.376 64.028,334.458 63.676,334.622C63.324,334.786 63.022,335.012 62.77,335.3C62.518,335.588 62.324,335.922 62.188,336.302C62.052,336.682 61.984,337.088 61.984,337.52C61.984,337.944 62.052,338.346 62.188,338.726C62.324,339.106 62.518,339.44 62.77,339.728C63.022,340.016 63.324,340.244 63.676,340.412C64.028,340.58 64.424,340.664 64.864,340.664Z" style="fill:white;fill-rule:nonzero;"/>
            <path d="M70.258,335.96L71.338,335.96L71.338,339.236C71.338,339.764 71.446,340.146 71.662,340.382C71.878,340.618 72.19,340.736 72.598,340.736C72.91,340.736 73.168,340.672 73.372,340.544C73.576,340.416 73.742,340.25 73.87,340.046C73.998,339.842 74.088,339.61 74.14,339.35C74.192,339.09 74.218,338.824 74.218,338.552L74.218,335.96L75.298,335.96L75.298,340.97C75.298,341.15 75.302,341.34 75.31,341.54L74.278,341.54L74.242,340.712C74.17,340.808 74.082,340.912 73.978,341.024C73.874,341.136 73.746,341.238 73.594,341.33C73.442,341.422 73.266,341.5 73.066,341.564C72.866,341.628 72.638,341.66 72.382,341.66C71.654,341.66 71.118,341.45 70.774,341.03C70.43,340.61 70.258,340.036 70.258,339.308L70.258,335.96Z" style="fill:white;fill-rule:nonzero;"/>
            <path d="M77.284,336.86L76.276,336.86L76.276,335.96L77.284,335.96L77.284,334.136L78.364,334.136L78.364,335.96L79.996,335.96L79.996,336.86L78.364,336.86L78.364,339.608C78.364,340.056 78.434,340.364 78.574,340.532C78.714,340.7 78.912,340.784 79.168,340.784C79.376,340.784 79.548,340.752 79.684,340.688C79.82,340.624 79.956,340.528 80.092,340.4L80.584,341.06C80.352,341.284 80.114,341.446 79.87,341.546C79.626,341.646 79.336,341.696 79,341.696C78.408,341.696 77.974,341.536 77.698,341.216C77.422,340.896 77.284,340.396 77.284,339.716L77.284,336.86Z" style="fill:white;fill-rule:nonzero;"/>
        </g>
        <rect x="25.444" y="333.536" width="1.152" height="8.004" style="fill-rule:nonzero;"/>
        <path d="M28.264,341.54L28.264,336.53C28.264,336.35 28.26,336.16 28.252,335.96L29.284,335.96L29.32,336.8C29.392,336.704 29.48,336.598 29.584,336.482C29.688,336.366 29.816,336.26 29.968,336.164C30.12,336.068 30.298,335.988 30.502,335.924C30.706,335.86 30.936,335.828 31.192,335.828C31.92,335.828 32.46,336.04 32.812,336.464C33.164,336.888 33.34,337.464 33.34,338.192L33.34,341.54L32.26,341.54L32.26,338.276C32.26,337.756 32.148,337.374 31.924,337.13C31.7,336.886 31.384,336.764 30.976,336.764C30.664,336.764 30.404,336.828 30.196,336.956C29.988,337.084 29.822,337.25 29.698,337.454C29.574,337.658 29.484,337.89 29.428,338.15C29.372,338.41 29.344,338.676 29.344,338.948L29.344,341.54L28.264,341.54Z" style="fill-rule:nonzero;"/>
        <g transform="matrix(1,0,0,1,-12.5107,0)">
            <g transform="matrix(18,0,0,18,31.0627,28.8369)">
                <path d="M0.076,-0.667L0.287,-0.667C0.332,-0.667 0.37,-0.661 0.4,-0.648C0.429,-0.635 0.453,-0.619 0.471,-0.6C0.488,-0.581 0.501,-0.559 0.508,-0.535C0.515,-0.511 0.518,-0.488 0.518,-0.465C0.518,-0.432 0.512,-0.402 0.501,-0.377C0.49,-0.352 0.474,-0.331 0.454,-0.314C0.434,-0.297 0.41,-0.284 0.383,-0.275C0.355,-0.266 0.325,-0.262 0.292,-0.262L0.171,-0.262L0.171,-0L0.076,-0L0.076,-0.667ZM0.291,-0.344C0.332,-0.344 0.364,-0.355 0.387,-0.376C0.409,-0.397 0.42,-0.426 0.42,-0.463C0.42,-0.501 0.409,-0.531 0.386,-0.552C0.363,-0.574 0.331,-0.585 0.291,-0.585L0.171,-0.585L0.171,-0.344L0.291,-0.344Z" style="fill-rule:nonzero;"/>
            </g>
            <g transform="matrix(18,0,0,18,40.4587,28.8369)">
                <path d="M0.061,-0.667L0.15,-0.667L0.15,-0.396C0.156,-0.404 0.163,-0.413 0.172,-0.422C0.181,-0.431 0.191,-0.44 0.204,-0.448C0.217,-0.456 0.231,-0.463 0.248,-0.468C0.265,-0.473 0.284,-0.476 0.305,-0.476C0.366,-0.476 0.411,-0.458 0.44,-0.423C0.469,-0.388 0.484,-0.34 0.484,-0.279L0.484,-0L0.394,-0L0.394,-0.272C0.394,-0.315 0.385,-0.347 0.366,-0.367C0.347,-0.388 0.321,-0.398 0.287,-0.398C0.261,-0.398 0.239,-0.393 0.222,-0.382C0.205,-0.371 0.191,-0.357 0.18,-0.341C0.17,-0.324 0.163,-0.304 0.158,-0.283C0.153,-0.261 0.151,-0.239 0.151,-0.216L0.151,-0L0.061,-0L0.061,-0.667Z" style="fill-rule:nonzero;"/>
            </g>
            <g transform="matrix(18,0,0,18,49.8007,28.8369)">
                <path d="M0.352,-0.22C0.349,-0.221 0.344,-0.222 0.337,-0.223C0.329,-0.224 0.32,-0.224 0.31,-0.225C0.3,-0.226 0.289,-0.226 0.278,-0.227C0.267,-0.228 0.256,-0.228 0.245,-0.228C0.22,-0.228 0.199,-0.225 0.183,-0.219C0.168,-0.213 0.155,-0.206 0.146,-0.197C0.137,-0.188 0.131,-0.177 0.128,-0.167C0.125,-0.155 0.123,-0.145 0.123,-0.135C0.123,-0.11 0.132,-0.091 0.149,-0.077C0.166,-0.065 0.19,-0.058 0.221,-0.058C0.238,-0.058 0.255,-0.061 0.271,-0.067C0.286,-0.073 0.3,-0.081 0.312,-0.091C0.324,-0.101 0.334,-0.113 0.341,-0.126C0.348,-0.139 0.352,-0.153 0.352,-0.167L0.352,-0.22ZM0.353,-0.056C0.336,-0.033 0.313,-0.015 0.285,-0.004C0.256,0.007 0.227,0.013 0.197,0.013C0.178,0.013 0.159,0.011 0.14,0.005C0.121,0 0.103,-0.008 0.088,-0.019C0.072,-0.031 0.059,-0.046 0.05,-0.065C0.04,-0.083 0.035,-0.105 0.035,-0.132C0.035,-0.182 0.053,-0.222 0.088,-0.252C0.123,-0.282 0.173,-0.297 0.239,-0.297C0.25,-0.297 0.261,-0.297 0.273,-0.296C0.285,-0.295 0.296,-0.295 0.307,-0.294C0.318,-0.293 0.327,-0.293 0.335,-0.292C0.343,-0.291 0.349,-0.291 0.352,-0.29L0.352,-0.307C0.352,-0.342 0.341,-0.366 0.321,-0.382C0.299,-0.397 0.271,-0.404 0.235,-0.404C0.2,-0.404 0.172,-0.399 0.151,-0.39C0.13,-0.38 0.113,-0.37 0.099,-0.36L0.057,-0.421C0.065,-0.428 0.075,-0.434 0.086,-0.441C0.097,-0.448 0.111,-0.454 0.126,-0.46C0.141,-0.465 0.159,-0.47 0.178,-0.474C0.197,-0.477 0.22,-0.479 0.245,-0.479C0.305,-0.479 0.352,-0.464 0.387,-0.435C0.421,-0.407 0.438,-0.365 0.438,-0.312L0.438,-0.042C0.438,-0.025 0.438,-0.011 0.439,-0L0.355,-0L0.353,-0.056Z" style="fill-rule:nonzero;"/>
            </g>
            <g transform="matrix(18,0,0,18,58.3507,28.8369)">
                <path d="M0.092,-0.117C0.109,-0.1 0.129,-0.087 0.152,-0.077C0.175,-0.067 0.202,-0.062 0.233,-0.062C0.263,-0.062 0.288,-0.067 0.308,-0.076C0.328,-0.086 0.338,-0.101 0.338,-0.122C0.338,-0.133 0.336,-0.142 0.332,-0.149C0.327,-0.157 0.32,-0.164 0.309,-0.17C0.299,-0.176 0.286,-0.181 0.269,-0.186C0.252,-0.192 0.23,-0.197 0.205,-0.203C0.187,-0.207 0.169,-0.212 0.151,-0.219C0.134,-0.226 0.118,-0.235 0.104,-0.245C0.09,-0.257 0.079,-0.27 0.07,-0.286C0.061,-0.301 0.057,-0.32 0.057,-0.342C0.057,-0.365 0.062,-0.385 0.072,-0.402C0.083,-0.419 0.097,-0.433 0.114,-0.445C0.131,-0.456 0.151,-0.465 0.173,-0.471C0.194,-0.477 0.217,-0.48 0.24,-0.48C0.279,-0.48 0.313,-0.475 0.342,-0.465C0.37,-0.454 0.395,-0.44 0.416,-0.421L0.367,-0.359C0.353,-0.372 0.335,-0.382 0.315,-0.391C0.294,-0.4 0.269,-0.404 0.241,-0.404C0.212,-0.404 0.189,-0.399 0.172,-0.39C0.155,-0.381 0.146,-0.365 0.146,-0.344C0.146,-0.324 0.158,-0.309 0.18,-0.299C0.204,-0.29 0.234,-0.281 0.271,-0.272C0.293,-0.267 0.314,-0.261 0.333,-0.254C0.351,-0.247 0.368,-0.238 0.383,-0.227C0.397,-0.215 0.408,-0.202 0.416,-0.186C0.425,-0.17 0.429,-0.151 0.429,-0.128C0.429,-0.105 0.424,-0.084 0.413,-0.067C0.402,-0.049 0.388,-0.034 0.37,-0.022C0.352,-0.01 0.331,-0.001 0.308,0.005C0.285,0.011 0.26,0.014 0.235,0.014C0.147,0.014 0.081,-0.01 0.037,-0.057L0.092,-0.117Z" style="fill-rule:nonzero;"/>
            </g>
            <g transform="matrix(18,0,0,18,66.4147,28.8369)">
                <path d="M0.286,0.014C0.25,0.014 0.217,0.007 0.187,-0.005C0.157,-0.018 0.131,-0.036 0.11,-0.059C0.088,-0.082 0.071,-0.108 0.059,-0.138C0.046,-0.167 0.04,-0.199 0.04,-0.233C0.04,-0.267 0.046,-0.299 0.059,-0.329C0.071,-0.358 0.088,-0.384 0.11,-0.407C0.131,-0.43 0.157,-0.448 0.187,-0.461C0.217,-0.474 0.25,-0.48 0.286,-0.48C0.321,-0.48 0.354,-0.474 0.384,-0.461C0.414,-0.448 0.44,-0.43 0.462,-0.407C0.484,-0.384 0.501,-0.358 0.513,-0.329C0.526,-0.299 0.532,-0.267 0.532,-0.233C0.532,-0.199 0.526,-0.167 0.513,-0.138C0.501,-0.108 0.484,-0.082 0.462,-0.059C0.44,-0.036 0.414,-0.018 0.384,-0.005C0.354,0.007 0.321,0.014 0.286,0.014ZM0.286,-0.064C0.31,-0.064 0.332,-0.069 0.351,-0.079C0.37,-0.088 0.387,-0.101 0.4,-0.117C0.413,-0.132 0.423,-0.15 0.43,-0.171C0.438,-0.191 0.441,-0.212 0.441,-0.233C0.441,-0.254 0.438,-0.274 0.43,-0.294C0.423,-0.315 0.413,-0.333 0.4,-0.349C0.386,-0.365 0.369,-0.378 0.351,-0.388C0.332,-0.397 0.31,-0.402 0.286,-0.402C0.262,-0.402 0.24,-0.397 0.221,-0.388C0.202,-0.378 0.185,-0.365 0.172,-0.35C0.159,-0.334 0.148,-0.316 0.142,-0.295C0.135,-0.275 0.131,-0.254 0.131,-0.233C0.131,-0.212 0.135,-0.191 0.142,-0.171C0.148,-0.151 0.159,-0.133 0.173,-0.117C0.186,-0.101 0.203,-0.088 0.222,-0.079C0.241,-0.069 0.262,-0.064 0.286,-0.064Z" style="fill-rule:nonzero;"/>
            </g>
            <g transform="matrix(18,0,0,18,76.2787,28.8369)">
                <path d="M0.062,-0L0.062,-0.42C0.062,-0.435 0.062,-0.45 0.061,-0.465L0.147,-0.465L0.15,-0.39C0.155,-0.398 0.162,-0.407 0.171,-0.416C0.18,-0.426 0.19,-0.435 0.203,-0.443C0.215,-0.451 0.229,-0.458 0.245,-0.464C0.262,-0.469 0.281,-0.472 0.302,-0.472C0.312,-0.472 0.321,-0.471 0.33,-0.47C0.338,-0.469 0.346,-0.467 0.353,-0.464L0.333,-0.38C0.321,-0.385 0.306,-0.387 0.287,-0.387C0.268,-0.387 0.25,-0.383 0.234,-0.376C0.217,-0.369 0.203,-0.358 0.191,-0.346C0.179,-0.333 0.17,-0.317 0.163,-0.3C0.155,-0.283 0.152,-0.264 0.152,-0.245L0.152,-0L0.062,-0Z" style="fill-rule:nonzero;"/>
            </g>
            <g transform="matrix(18,0,0,18,81.6787,28.8369)">
                <rect x="0.073" y="-0.323" width="0.293" height="0.086" style="fill-rule:nonzero;"/>
            </g>
            <g transform="matrix(18,0,0,18,89.1487,28.8369)">
                <path d="M0.073,-0.167L0.368,-0.32L0.073,-0.473L0.107,-0.541L0.473,-0.349L0.473,-0.291L0.107,-0.099L0.073,-0.167Z" style="fill-rule:nonzero;"/>
            </g>
            <g transform="matrix(18,0,0,18,25.9147,46.8369)">
                <path d="M0.017,-0.667L0.123,-0.667L0.251,-0.129L0.396,-0.647L0.489,-0.647L0.631,-0.13L0.759,-0.667L0.859,-0.667L0.68,-0L0.578,-0L0.439,-0.493L0.296,-0L0.195,-0L0.017,-0.667Z" style="fill-rule:nonzero;"/>
            </g>
            <g transform="matrix(18,0,0,18,40.5667,46.8369)">
                <path d="M0.352,-0.22C0.349,-0.221 0.344,-0.222 0.337,-0.223C0.329,-0.224 0.32,-0.224 0.31,-0.225C0.3,-0.226 0.289,-0.226 0.278,-0.227C0.267,-0.228 0.256,-0.228 0.245,-0.228C0.22,-0.228 0.199,-0.225 0.183,-0.219C0.168,-0.213 0.155,-0.206 0.146,-0.197C0.137,-0.188 0.131,-0.177 0.128,-0.167C0.125,-0.155 0.123,-0.145 0.123,-0.135C0.123,-0.11 0.132,-0.091 0.149,-0.077C0.166,-0.065 0.19,-0.058 0.221,-0.058C0.238,-0.058 0.255,-0.061 0.271,-0.067C0.286,-0.073 0.3,-0.081 0.312,-0.091C0.324,-0.101 0.334,-0.113 0.341,-0.126C0.348,-0.139 0.352,-0.153 0.352,-0.167L0.352,-0.22ZM0.353,-0.056C0.336,-0.033 0.313,-0.015 0.285,-0.004C0.256,0.007 0.227,0.013 0.197,0.013C0.178,0.013 0.159,0.011 0.14,0.005C0.121,0 0.103,-0.008 0.088,-0.019C0.072,-0.031 0.059,-0.046 0.05,-0.065C0.04,-0.083 0.035,-0.105 0.035,-0.132C0.035,-0.182 0.053,-0.222 0.088,-0.252C0.123,-0.282 0.173,-0.297 0.239,-0.297C0.25,-0.297 0.261,-0.297 0.273,-0.296C0.285,-0.295 0.296,-0.295 0.307,-0.294C0.318,-0.293 0.327,-0.293 0.335,-0.292C0.343,-0.291 0.349,-0.291 0.352,-0.29L0.352,-0.307C0.352,-0.342 0.341,-0.366 0.321,-0.382C0.299,-0.397 0.271,-0.404 0.235,-0.404C0.2,-0.404 0.172,-0.399 0.151,-0.39C0.13,-0.38 0.113,-0.37 0.099,-0.36L0.057,-0.421C0.065,-0.428 0.075,-0.434 0.086,-0.441C0.097,-0.448 0.111,-0.454 0.126,-0.46C0.141,-0.465 0.159,-0.47 0.178,-0.474C0.197,-0.477 0.22,-0.479 0.245,-0.479C0.305,-0.479 0.352,-0.464 0.387,-0.435C0.421,-0.407 0.438,-0.365 0.438,-0.312L0.438,-0.042C0.438,-0.025 0.438,-0.011 0.439,-0L0.355,-0L0.353,-0.056Z" style="fill-rule:nonzero;"/>
            </g>
            <g transform="matrix(18,0,0,18,48.7567,46.8369)">
                <path d="M0.006,-0.465L0.109,-0.465L0.254,-0.102L0.398,-0.465L0.495,-0.465L0.296,-0L0.206,-0L0.006,-0.465Z" style="fill-rule:nonzero;"/>
            </g>
            <g transform="matrix(18,0,0,18,57.3607,46.8369)">
                <path d="M0.486,-0.068C0.481,-0.062 0.473,-0.054 0.462,-0.045C0.451,-0.036 0.438,-0.027 0.42,-0.018C0.404,-0.009 0.384,-0.002 0.36,0.005C0.337,0.011 0.311,0.014 0.282,0.014C0.246,0.014 0.213,0.008 0.183,-0.004C0.153,-0.016 0.127,-0.033 0.106,-0.055C0.085,-0.077 0.068,-0.103 0.057,-0.134C0.045,-0.165 0.039,-0.199 0.039,-0.236C0.039,-0.27 0.045,-0.302 0.056,-0.332C0.067,-0.361 0.083,-0.387 0.104,-0.409C0.125,-0.43 0.149,-0.447 0.177,-0.46C0.206,-0.473 0.237,-0.479 0.271,-0.479C0.311,-0.479 0.345,-0.471 0.374,-0.456C0.403,-0.441 0.426,-0.42 0.445,-0.395C0.463,-0.37 0.476,-0.341 0.485,-0.308C0.494,-0.275 0.498,-0.241 0.498,-0.206L0.131,-0.206C0.132,-0.185 0.136,-0.166 0.144,-0.149C0.153,-0.132 0.164,-0.117 0.178,-0.104C0.192,-0.091 0.208,-0.081 0.226,-0.074C0.244,-0.067 0.263,-0.063 0.283,-0.063C0.322,-0.063 0.355,-0.07 0.38,-0.083C0.405,-0.096 0.424,-0.109 0.435,-0.122L0.486,-0.068ZM0.405,-0.273C0.402,-0.309 0.39,-0.34 0.367,-0.365C0.344,-0.39 0.312,-0.403 0.271,-0.403C0.25,-0.403 0.231,-0.399 0.213,-0.392C0.197,-0.385 0.182,-0.375 0.17,-0.363C0.158,-0.351 0.149,-0.337 0.142,-0.322C0.135,-0.306 0.132,-0.29 0.131,-0.273L0.405,-0.273Z" style="fill-rule:nonzero;"/>
            </g>
            <g transform="matrix(18,0,0,18,66.5767,46.8369)">
                <path d="M0.102,-0.39L0.018,-0.39L0.018,-0.465L0.102,-0.465L0.102,-0.617L0.192,-0.617L0.192,-0.465L0.328,-0.465L0.328,-0.39L0.192,-0.39L0.192,-0.161C0.192,-0.124 0.198,-0.098 0.209,-0.084C0.221,-0.07 0.238,-0.063 0.259,-0.063C0.276,-0.063 0.291,-0.066 0.302,-0.071C0.313,-0.076 0.325,-0.084 0.336,-0.095L0.377,-0.04C0.358,-0.021 0.338,-0.008 0.318,0.001C0.297,0.009 0.273,0.013 0.245,0.013C0.196,0.013 0.16,-0 0.137,-0.027C0.114,-0.054 0.102,-0.095 0.102,-0.152L0.102,-0.39Z" style="fill-rule:nonzero;"/>
            </g>
            <g transform="matrix(18,0,0,18,73.0567,46.8369)">
                <path d="M0.352,-0.22C0.349,-0.221 0.344,-0.222 0.337,-0.223C0.329,-0.224 0.32,-0.224 0.31,-0.225C0.3,-0.226 0.289,-0.226 0.278,-0.227C0.267,-0.228 0.256,-0.228 0.245,-0.228C0.22,-0.228 0.199,-0.225 0.183,-0.219C0.168,-0.213 0.155,-0.206 0.146,-0.197C0.137,-0.188 0.131,-0.177 0.128,-0.167C0.125,-0.155 0.123,-0.145 0.123,-0.135C0.123,-0.11 0.132,-0.091 0.149,-0.077C0.166,-0.065 0.19,-0.058 0.221,-0.058C0.238,-0.058 0.255,-0.061 0.271,-0.067C0.286,-0.073 0.3,-0.081 0.312,-0.091C0.324,-0.101 0.334,-0.113 0.341,-0.126C0.348,-0.139 0.352,-0.153 0.352,-0.167L0.352,-0.22ZM0.353,-0.056C0.336,-0.033 0.313,-0.015 0.285,-0.004C0.256,0.007 0.227,0.013 0.197,0.013C0.178,0.013 0.159,0.011 0.14,0.005C0.121,0 0.103,-0.008 0.088,-0.019C0.072,-0.031 0.059,-0.046 0.05,-0.065C0.04,-0.083 0.035,-0.105 0.035,-0.132C0.035,-0.182 0.053,-0.222 0.088,-0.252C0.123,-0.282 0.173,-0.297 0.239,-0.297C0.25,-0.297 0.261,-0.297 0.273,-0.296C0.285,-0.295 0.296,-0.295 0.307,-0.294C0.318,-0.293 0.327,-0.293 0.335,-0.292C0.343,-0.291 0.349,-0.291 0.352,-0.29L0.352,-0.307C0.352,-0.342 0.341,-0.366 0.321,-0.382C0.299,-0.397 0.271,-0.404 0.235,-0.404C0.2,-0.404 0.172,-0.399 0.151,-0.39C0.13,-0.38 0.113,-0.37 0.099,-0.36L0.057,-0.421C0.065,-0.428 0.075,-0.434 0.086,-0.441C0.097,-0.448 0.111,-0.454 0.126,-0.46C0.141,-0.465 0.159,-0.47 0.178,-0.474C0.197,-0.477 0.22,-0.479 0.245,-0.479C0.305,-0.479 0.352,-0.464 0.387,-0.435C0.421,-0.407 0.438,-0.365 0.438,-0.312L0.438,-0.042C0.438,-0.025 0.438,-0.011 0.439,-0L0.355,-0L0.353,-0.056Z" style="fill-rule:nonzero;"/>
            </g>
            <g transform="matrix(18,0,0,18,81.6067,46.8369)">
                <path d="M0.062,-0.667L0.152,-0.667L0.152,-0.414C0.157,-0.42 0.163,-0.427 0.172,-0.434C0.18,-0.441 0.19,-0.448 0.202,-0.455C0.214,-0.461 0.228,-0.466 0.243,-0.47C0.259,-0.474 0.277,-0.476 0.296,-0.476C0.331,-0.476 0.361,-0.47 0.388,-0.458C0.414,-0.445 0.436,-0.428 0.454,-0.407C0.472,-0.385 0.485,-0.359 0.494,-0.33C0.503,-0.301 0.508,-0.269 0.508,-0.236C0.508,-0.199 0.502,-0.166 0.489,-0.135C0.476,-0.104 0.459,-0.078 0.435,-0.056C0.413,-0.034 0.385,-0.017 0.353,-0.005C0.321,0.008 0.286,0.014 0.247,0.014C0.209,0.014 0.174,0.011 0.141,0.005C0.108,-0.001 0.082,-0.008 0.062,-0.016L0.062,-0.667ZM0.151,-0.077C0.16,-0.074 0.172,-0.071 0.185,-0.069C0.199,-0.066 0.219,-0.064 0.246,-0.064C0.272,-0.064 0.295,-0.068 0.316,-0.076C0.337,-0.085 0.355,-0.096 0.369,-0.112C0.385,-0.127 0.396,-0.144 0.404,-0.166C0.412,-0.186 0.416,-0.209 0.416,-0.234C0.416,-0.255 0.414,-0.276 0.409,-0.295C0.404,-0.315 0.396,-0.333 0.385,-0.348C0.373,-0.362 0.36,-0.374 0.343,-0.384C0.326,-0.393 0.306,-0.397 0.282,-0.397C0.26,-0.397 0.241,-0.393 0.225,-0.386C0.208,-0.378 0.195,-0.368 0.183,-0.355C0.173,-0.343 0.164,-0.329 0.159,-0.312C0.154,-0.296 0.151,-0.279 0.151,-0.262L0.151,-0.077Z" style="fill-rule:nonzero;"/>
            </g>
            <g transform="matrix(18,0,0,18,91.0387,46.8369)">
                <rect x="0.062" y="-0.667" width="0.09" height="0.667" style="fill-rule:nonzero;"/>
            </g>
            <g transform="matrix(18,0,0,18,94.4587,46.8369)">
                <path d="M0.486,-0.068C0.481,-0.062 0.473,-0.054 0.462,-0.045C0.451,-0.036 0.438,-0.027 0.42,-0.018C0.404,-0.009 0.384,-0.002 0.36,0.005C0.337,0.011 0.311,0.014 0.282,0.014C0.246,0.014 0.213,0.008 0.183,-0.004C0.153,-0.016 0.127,-0.033 0.106,-0.055C0.085,-0.077 0.068,-0.103 0.057,-0.134C0.045,-0.165 0.039,-0.199 0.039,-0.236C0.039,-0.27 0.045,-0.302 0.056,-0.332C0.067,-0.361 0.083,-0.387 0.104,-0.409C0.125,-0.43 0.149,-0.447 0.177,-0.46C0.206,-0.473 0.237,-0.479 0.271,-0.479C0.311,-0.479 0.345,-0.471 0.374,-0.456C0.403,-0.441 0.426,-0.42 0.445,-0.395C0.463,-0.37 0.476,-0.341 0.485,-0.308C0.494,-0.275 0.498,-0.241 0.498,-0.206L0.131,-0.206C0.132,-0.185 0.136,-0.166 0.144,-0.149C0.153,-0.132 0.164,-0.117 0.178,-0.104C0.192,-0.091 0.208,-0.081 0.226,-0.074C0.244,-0.067 0.263,-0.063 0.283,-0.063C0.322,-0.063 0.355,-0.07 0.38,-0.083C0.405,-0.096 0.424,-0.109 0.435,-0.122L0.486,-0.068ZM0.405,-0.273C0.402,-0.309 0.39,-0.34 0.367,-0.365C0.344,-0.39 0.312,-0.403 0.271,-0.403C0.25,-0.403 0.231,-0.399 0.213,-0.392C0.197,-0.385 0.182,-0.375 0.17,-0.363C0.158,-0.351 0.149,-0.337 0.142,-0.322C0.135,-0.306 0.132,-0.29 0.131,-0.273L0.405,-0.273Z" style="fill-rule:nonzero;"/>
            </g>
        </g>
        <g id="X">
            <path d="M9.472,147.107L12.004,147.107C12.548,147.107 12.998,147.183 13.354,147.335C13.71,147.487 13.994,147.679 14.206,147.911C14.418,148.143 14.566,148.403 14.65,148.691C14.734,148.979 14.776,149.259 14.776,149.531C14.776,149.931 14.708,150.283 14.572,150.587C14.436,150.891 14.248,151.145 14.008,151.349C13.768,151.553 13.482,151.707 13.15,151.811C12.818,151.915 12.456,151.967 12.064,151.967L10.612,151.967L10.612,155.111L9.472,155.111L9.472,147.107ZM12.052,150.983C12.548,150.983 12.93,150.857 13.198,150.605C13.466,150.353 13.6,150.003 13.6,149.555C13.6,149.099 13.462,148.741 13.186,148.481C12.91,148.221 12.532,148.091 12.052,148.091L10.612,148.091L10.612,150.983L12.052,150.983Z" style="fill-rule:nonzero;"/>
            <path d="M18.1,155.279C17.668,155.279 17.272,155.201 16.912,155.045C16.552,154.889 16.242,154.675 15.982,154.403C15.722,154.131 15.518,153.817 15.37,153.461C15.222,153.105 15.148,152.723 15.148,152.315C15.148,151.907 15.222,151.525 15.37,151.169C15.518,150.813 15.722,150.499 15.982,150.227C16.242,149.955 16.552,149.741 16.912,149.585C17.272,149.429 17.668,149.351 18.1,149.351C18.524,149.351 18.916,149.429 19.276,149.585C19.636,149.741 19.948,149.955 20.212,150.227C20.476,150.499 20.682,150.813 20.83,151.169C20.978,151.525 21.052,151.907 21.052,152.315C21.052,152.723 20.978,153.105 20.83,153.461C20.682,153.817 20.476,154.131 20.212,154.403C19.948,154.675 19.636,154.889 19.276,155.045C18.916,155.201 18.524,155.279 18.1,155.279ZM18.1,154.343C18.388,154.343 18.648,154.285 18.88,154.169C19.112,154.053 19.308,153.901 19.468,153.713C19.628,153.525 19.75,153.309 19.834,153.065C19.918,152.821 19.96,152.571 19.96,152.315C19.96,152.067 19.918,151.821 19.834,151.577C19.75,151.333 19.626,151.115 19.462,150.923C19.298,150.731 19.102,150.577 18.874,150.461C18.646,150.345 18.388,150.287 18.1,150.287C17.812,150.287 17.552,150.345 17.32,150.461C17.088,150.577 16.892,150.729 16.732,150.917C16.572,151.105 16.45,151.321 16.366,151.565C16.282,151.809 16.24,152.059 16.24,152.315C16.24,152.571 16.282,152.819 16.366,153.059C16.45,153.299 16.574,153.515 16.738,153.707C16.902,153.899 17.098,154.053 17.326,154.169C17.554,154.285 17.812,154.343 18.1,154.343Z" style="fill-rule:nonzero;"/>
            <path d="M22.552,153.707C22.752,153.907 22.992,154.067 23.272,154.187C23.552,154.307 23.876,154.367 24.244,154.367C24.604,154.367 24.904,154.309 25.144,154.193C25.384,154.077 25.504,153.895 25.504,153.647C25.504,153.519 25.478,153.409 25.426,153.317C25.374,153.225 25.286,153.143 25.162,153.071C25.038,152.999 24.874,152.933 24.67,152.873C24.466,152.813 24.212,152.747 23.908,152.675C23.692,152.627 23.478,152.563 23.266,152.483C23.054,152.403 22.864,152.297 22.696,152.165C22.528,152.033 22.392,151.873 22.288,151.685C22.184,151.497 22.132,151.271 22.132,151.007C22.132,150.735 22.194,150.497 22.318,150.293C22.442,150.089 22.608,149.917 22.816,149.777C23.024,149.637 23.258,149.531 23.518,149.459C23.778,149.387 24.048,149.351 24.328,149.351C24.8,149.351 25.206,149.413 25.546,149.537C25.886,149.661 26.184,149.835 26.44,150.059L25.852,150.803C25.684,150.651 25.474,150.523 25.222,150.419C24.97,150.315 24.676,150.263 24.34,150.263C23.996,150.263 23.72,150.319 23.512,150.431C23.304,150.543 23.2,150.727 23.2,150.983C23.2,151.223 23.338,151.401 23.614,151.517C23.89,151.633 24.252,151.743 24.7,151.847C24.964,151.911 25.21,151.985 25.438,152.069C25.666,152.153 25.866,152.261 26.038,152.393C26.21,152.525 26.346,152.687 26.446,152.879C26.546,153.071 26.596,153.303 26.596,153.575C26.596,153.855 26.532,154.101 26.404,154.313C26.276,154.525 26.104,154.703 25.888,154.847C25.672,154.991 25.424,155.099 25.144,155.171C24.864,155.243 24.572,155.279 24.268,155.279C23.212,155.279 22.42,154.995 21.892,154.427L22.552,153.707Z" style="fill-rule:nonzero;"/>
            <path d="M27.748,147.323L28.96,147.323L28.96,148.535L27.748,148.535L27.748,147.323ZM27.82,149.531L28.9,149.531L28.9,155.111L27.82,155.111L27.82,149.531Z" style="fill-rule:nonzero;"/>
            <path d="M30.832,150.431L29.824,150.431L29.824,149.531L30.832,149.531L30.832,147.707L31.912,147.707L31.912,149.531L33.544,149.531L33.544,150.431L31.912,150.431L31.912,153.179C31.912,153.627 31.982,153.935 32.122,154.103C32.262,154.271 32.46,154.355 32.716,154.355C32.924,154.355 33.096,154.323 33.232,154.259C33.368,154.195 33.504,154.099 33.64,153.971L34.132,154.631C33.9,154.855 33.662,155.017 33.418,155.117C33.174,155.217 32.884,155.267 32.548,155.267C31.956,155.267 31.522,155.107 31.246,154.787C30.97,154.467 30.832,153.967 30.832,153.287L30.832,150.431Z" style="fill-rule:nonzero;"/>
            <path d="M34.852,147.323L36.064,147.323L36.064,148.535L34.852,148.535L34.852,147.323ZM34.924,149.531L36.004,149.531L36.004,155.111L34.924,155.111L34.924,149.531Z" style="fill-rule:nonzero;"/>
            <path d="M40.144,155.279C39.712,155.279 39.316,155.201 38.956,155.045C38.596,154.889 38.286,154.675 38.026,154.403C37.766,154.131 37.562,153.817 37.414,153.461C37.266,153.105 37.192,152.723 37.192,152.315C37.192,151.907 37.266,151.525 37.414,151.169C37.562,150.813 37.766,150.499 38.026,150.227C38.286,149.955 38.596,149.741 38.956,149.585C39.316,149.429 39.712,149.351 40.144,149.351C40.568,149.351 40.96,149.429 41.32,149.585C41.68,149.741 41.992,149.955 42.256,150.227C42.52,150.499 42.726,150.813 42.874,151.169C43.022,151.525 43.096,151.907 43.096,152.315C43.096,152.723 43.022,153.105 42.874,153.461C42.726,153.817 42.52,154.131 42.256,154.403C41.992,154.675 41.68,154.889 41.32,155.045C40.96,155.201 40.568,155.279 40.144,155.279ZM40.144,154.343C40.432,154.343 40.692,154.285 40.924,154.169C41.156,154.053 41.352,153.901 41.512,153.713C41.672,153.525 41.794,153.309 41.878,153.065C41.962,152.821 42.004,152.571 42.004,152.315C42.004,152.067 41.962,151.821 41.878,151.577C41.794,151.333 41.67,151.115 41.506,150.923C41.342,150.731 41.146,150.577 40.918,150.461C40.69,150.345 40.432,150.287 40.144,150.287C39.856,150.287 39.596,150.345 39.364,150.461C39.132,150.577 38.936,150.729 38.776,150.917C38.616,151.105 38.494,151.321 38.41,151.565C38.326,151.809 38.284,152.059 38.284,152.315C38.284,152.571 38.326,152.819 38.41,153.059C38.494,153.299 38.618,153.515 38.782,153.707C38.946,153.899 39.142,154.053 39.37,154.169C39.598,154.285 39.856,154.343 40.144,154.343Z" style="fill-rule:nonzero;"/>
            <path d="M44.236,155.111L44.236,150.101C44.236,149.921 44.232,149.731 44.224,149.531L45.256,149.531L45.292,150.371C45.364,150.275 45.452,150.169 45.556,150.053C45.66,149.937 45.788,149.831 45.94,149.735C46.092,149.639 46.27,149.559 46.474,149.495C46.678,149.431 46.908,149.399 47.164,149.399C47.892,149.399 48.432,149.611 48.784,150.035C49.136,150.459 49.312,151.035 49.312,151.763L49.312,155.111L48.232,155.111L48.232,151.847C48.232,151.327 48.12,150.945 47.896,150.701C47.672,150.457 47.356,150.335 46.948,150.335C46.636,150.335 46.376,150.399 46.168,150.527C45.96,150.655 45.794,150.821 45.67,151.025C45.546,151.229 45.456,151.461 45.4,151.721C45.344,151.981 45.316,152.247 45.316,152.519L45.316,155.111L44.236,155.111Z" style="fill-rule:nonzero;"/>
            <path d="M29.29,166.977L29.29,278.653" style="fill:none;stroke:black;stroke-width:1px;stroke-dasharray:2,2,0,0;"/>
            <rect x="15.83" y="229.807" width="2.216" height="0.944" style="fill-rule:nonzero;"/>
            <path d="M38.91,231.095L40.638,231.095L40.638,232.823L41.662,232.823L41.662,231.095L43.39,231.095L43.39,230.071L41.662,230.071L41.662,228.343L40.638,228.343L40.638,230.071L38.91,230.071L38.91,231.095Z" style="fill-rule:nonzero;"/>
        </g>
        <g>
            <path d="M32.31,361.314L30.704,361.314L30.704,355.983L24.628,355.983L24.628,361.314L23.022,361.314L23.022,349.89L24.628,349.89L24.628,354.609L30.704,354.609L30.704,349.89L32.31,349.89L32.31,361.314Z" style="fill:rgb(35,31,32);fill-rule:nonzero;"/>
            <path d="M40.518,361.314L33.697,361.314L33.697,349.89L40.386,349.89L40.386,351.232L35.303,351.232L35.303,354.642L40.104,354.642L40.104,355.983L35.303,355.983L35.303,359.957L40.518,359.957L40.518,361.314Z" style="fill:rgb(35,31,32);fill-rule:nonzero;"/>
            <path d="M49.391,351.232L46.179,351.232L46.179,361.314L44.573,361.314L44.573,351.232L41.345,351.232L41.345,349.89L49.391,349.89L49.391,351.232Z" style="fill:rgb(35,31,32);fill-rule:nonzero;"/>
            <path d="M55.101,351.613C54.588,351.232 53.975,351.199 53.181,351.199L52.005,351.199L52.005,355.073L53.181,355.073C53.975,355.073 54.588,355.04 55.101,354.676C55.615,354.295 55.83,353.831 55.83,353.135C55.83,352.457 55.615,351.977 55.101,351.613M58.148,361.314L56.21,361.314L53.23,356.397L52.005,356.397L52.005,361.314L50.399,361.314L50.399,349.89L53.627,349.89C54.77,349.89 55.697,350.156 56.376,350.685C57.055,351.232 57.485,352.059 57.485,353.102C57.485,355.106 56.094,356 54.886,356.232L58.148,361.314Z" style="fill:rgb(35,31,32);fill-rule:nonzero;"/>
            <rect x="59.34" y="349.89" width="1.605" height="11.424" style="fill:rgb(35,31,32);"/>
            <path d="M72.068,359.824C71.356,360.619 70.065,361.513 67.896,361.513C64.568,361.513 62.051,359.178 62.051,355.619C62.051,352.059 64.618,349.725 67.896,349.725C70.032,349.725 71.323,350.619 71.952,351.232L71.273,352.523C70.827,351.961 69.551,351.133 67.963,351.133C65.496,351.133 63.708,352.904 63.708,355.586C63.708,358.268 65.512,360.04 67.963,360.04C69.468,360.04 70.628,359.461 71.373,358.649L72.068,359.824Z" style="fill:rgb(237,50,36);fill-rule:nonzero;"/>
            <path d="M81.978,361.314L80.025,361.314L76.233,355.585L75.058,356.778L75.058,361.314L73.452,361.314L73.452,349.89L75.058,349.89L75.058,354.758L79.71,349.89L81.664,349.89L77.309,354.394L81.978,361.314Z" style="fill:rgb(237,50,36);fill-rule:nonzero;"/>
            <path d="M81.978,361.314L80.025,361.314L76.233,355.585L75.058,356.778L75.058,361.314L73.452,361.314L73.452,356.755L75.058,356.778L76.233,355.585L77.309,354.394L77.926,355.307L78.423,356.044L81.978,361.314Z" style="fill-rule:nonzero;"/>
        </g>
        <g>
            <path d="M53.157,239.815L54.117,239.815L54.117,243.715C54.117,244.015 54.143,244.29 54.197,244.54C54.25,244.79 54.342,245.005 54.472,245.185C54.602,245.365 54.775,245.503 54.992,245.6C55.208,245.697 55.483,245.745 55.817,245.745C56.143,245.745 56.415,245.697 56.632,245.6C56.848,245.503 57.022,245.365 57.152,245.185C57.282,245.005 57.373,244.79 57.427,244.54C57.48,244.29 57.507,244.015 57.507,243.715L57.507,239.815L58.467,239.815L58.467,243.945C58.467,244.325 58.413,244.68 58.307,245.01C58.2,245.34 58.038,245.627 57.822,245.87C57.605,246.113 57.33,246.305 56.997,246.445C56.663,246.585 56.27,246.655 55.817,246.655C55.363,246.655 54.97,246.585 54.637,246.445C54.303,246.305 54.027,246.113 53.807,245.87C53.587,245.627 53.423,245.34 53.317,245.01C53.21,244.68 53.157,244.325 53.157,243.945L53.157,239.815Z" style="fill-rule:nonzero;"/>
            <path d="M59.727,246.485L59.727,242.31C59.727,242.16 59.723,242.002 59.717,241.835L60.577,241.835L60.607,242.535C60.667,242.455 60.74,242.367 60.827,242.27C60.913,242.173 61.02,242.085 61.147,242.005C61.273,241.925 61.422,241.858 61.592,241.805C61.762,241.752 61.953,241.725 62.167,241.725C62.773,241.725 63.223,241.902 63.517,242.255C63.81,242.608 63.957,243.088 63.957,243.695L63.957,246.485L63.057,246.485L63.057,243.765C63.057,243.332 62.963,243.013 62.777,242.81C62.59,242.607 62.327,242.505 61.987,242.505C61.727,242.505 61.51,242.558 61.337,242.665C61.163,242.772 61.025,242.91 60.922,243.08C60.818,243.25 60.743,243.443 60.697,243.66C60.65,243.877 60.627,244.098 60.627,244.325L60.627,246.485L59.727,246.485Z" style="fill-rule:nonzero;"/>
            <path d="M65.077,239.995L66.087,239.995L66.087,241.005L65.077,241.005L65.077,239.995ZM65.137,241.835L66.037,241.835L66.037,246.485L65.137,246.485L65.137,241.835Z" style="fill-rule:nonzero;"/>
            <path d="M67.247,248.485L67.247,242.31C67.247,242.16 67.243,242.002 67.237,241.835L68.097,241.835L68.127,242.495C68.173,242.435 68.24,242.362 68.327,242.275C68.413,242.188 68.522,242.105 68.652,242.025C68.782,241.945 68.933,241.877 69.107,241.82C69.28,241.763 69.48,241.735 69.707,241.735C70.067,241.735 70.378,241.802 70.642,241.935C70.905,242.068 71.123,242.248 71.297,242.475C71.47,242.702 71.598,242.962 71.682,243.255C71.765,243.548 71.807,243.858 71.807,244.185C71.807,244.605 71.735,244.968 71.592,245.275C71.448,245.582 71.262,245.835 71.032,246.035C70.802,246.235 70.545,246.383 70.262,246.48C69.978,246.577 69.7,246.625 69.427,246.625C69.113,246.625 68.862,246.593 68.672,246.53C68.482,246.467 68.303,246.398 68.137,246.325L68.137,248.485L67.247,248.485ZM68.137,245.475C68.243,245.562 68.397,245.645 68.597,245.725C68.797,245.805 69.047,245.845 69.347,245.845C69.573,245.845 69.782,245.803 69.972,245.72C70.162,245.637 70.325,245.52 70.462,245.37C70.598,245.22 70.703,245.045 70.777,244.845C70.85,244.645 70.887,244.425 70.887,244.185C70.887,243.958 70.862,243.745 70.812,243.545C70.762,243.345 70.682,243.168 70.572,243.015C70.462,242.862 70.32,242.74 70.147,242.65C69.973,242.56 69.76,242.515 69.507,242.515C69.187,242.515 68.913,242.603 68.687,242.78C68.46,242.957 68.3,243.215 68.207,243.555C68.173,243.662 68.153,243.777 68.147,243.9C68.14,244.023 68.137,244.152 68.137,244.285L68.137,245.475Z" style="fill-rule:nonzero;"/>
            <path d="M74.997,246.625C74.637,246.625 74.307,246.56 74.007,246.43C73.707,246.3 73.448,246.122 73.232,245.895C73.015,245.668 72.845,245.407 72.722,245.11C72.598,244.813 72.537,244.495 72.537,244.155C72.537,243.815 72.598,243.497 72.722,243.2C72.845,242.903 73.015,242.642 73.232,242.415C73.448,242.188 73.707,242.01 74.007,241.88C74.307,241.75 74.637,241.685 74.997,241.685C75.35,241.685 75.677,241.75 75.977,241.88C76.277,242.01 76.537,242.188 76.757,242.415C76.977,242.642 77.148,242.903 77.272,243.2C77.395,243.497 77.457,243.815 77.457,244.155C77.457,244.495 77.395,244.813 77.272,245.11C77.148,245.407 76.977,245.668 76.757,245.895C76.537,246.122 76.277,246.3 75.977,246.43C75.677,246.56 75.35,246.625 74.997,246.625ZM74.997,245.845C75.237,245.845 75.453,245.797 75.647,245.7C75.84,245.603 76.003,245.477 76.137,245.32C76.27,245.163 76.372,244.983 76.442,244.78C76.512,244.577 76.547,244.368 76.547,244.155C76.547,243.948 76.512,243.743 76.442,243.54C76.372,243.337 76.268,243.155 76.132,242.995C75.995,242.835 75.832,242.707 75.642,242.61C75.452,242.513 75.237,242.465 74.997,242.465C74.757,242.465 74.54,242.513 74.347,242.61C74.153,242.707 73.99,242.833 73.857,242.99C73.723,243.147 73.622,243.327 73.552,243.53C73.482,243.733 73.447,243.942 73.447,244.155C73.447,244.368 73.482,244.575 73.552,244.775C73.622,244.975 73.725,245.155 73.862,245.315C73.998,245.475 74.162,245.603 74.352,245.7C74.542,245.797 74.757,245.845 74.997,245.845Z" style="fill-rule:nonzero;"/>
            <rect x="78.407" y="239.815" width="0.9" height="6.67" style="fill-rule:nonzero;"/>
            <path d="M83.377,244.285C83.35,244.278 83.298,244.27 83.222,244.26C83.145,244.25 83.057,244.242 82.957,244.235C82.857,244.228 82.75,244.222 82.637,244.215C82.523,244.208 82.413,244.205 82.307,244.205C82.053,244.205 81.848,244.235 81.692,244.295C81.535,244.355 81.412,244.43 81.322,244.52C81.232,244.61 81.17,244.71 81.137,244.82C81.103,244.93 81.087,245.035 81.087,245.135C81.087,245.388 81.173,245.58 81.347,245.71C81.52,245.84 81.76,245.905 82.067,245.905C82.24,245.905 82.405,245.875 82.562,245.815C82.718,245.755 82.857,245.675 82.977,245.575C83.097,245.475 83.193,245.358 83.267,245.225C83.34,245.092 83.377,244.955 83.377,244.815L83.377,244.285ZM83.387,245.925C83.213,246.158 82.985,246.332 82.702,246.445C82.418,246.558 82.127,246.615 81.827,246.615C81.633,246.615 81.442,246.59 81.252,246.54C81.062,246.49 80.888,246.407 80.732,246.29C80.575,246.173 80.448,246.023 80.352,245.84C80.255,245.657 80.207,245.432 80.207,245.165C80.207,244.665 80.382,244.265 80.732,243.965C81.082,243.665 81.587,243.515 82.247,243.515C82.353,243.515 82.467,243.518 82.587,243.525C82.707,243.532 82.82,243.538 82.927,243.545C83.033,243.552 83.127,243.558 83.207,243.565C83.287,243.572 83.343,243.578 83.377,243.585L83.377,243.415C83.377,243.068 83.272,242.82 83.062,242.67C82.852,242.52 82.567,242.445 82.207,242.445C81.853,242.445 81.573,242.493 81.367,242.59C81.16,242.687 80.987,242.785 80.847,242.885L80.427,242.275C80.507,242.208 80.603,242.142 80.717,242.075C80.83,242.008 80.963,241.947 81.117,241.89C81.27,241.833 81.443,241.787 81.637,241.75C81.83,241.713 82.053,241.695 82.307,241.695C82.907,241.695 83.378,241.84 83.722,242.13C84.065,242.42 84.237,242.832 84.237,243.365L84.237,246.07C84.237,246.233 84.24,246.372 84.247,246.485L83.407,246.485L83.387,245.925Z" style="fill-rule:nonzero;"/>
            <path d="M85.397,246.485L85.397,242.28C85.397,242.137 85.393,241.988 85.387,241.835L86.247,241.835L86.277,242.585C86.33,242.505 86.4,242.417 86.487,242.32C86.573,242.223 86.678,242.135 86.802,242.055C86.925,241.975 87.068,241.907 87.232,241.85C87.395,241.793 87.583,241.765 87.797,241.765C87.897,241.765 87.988,241.772 88.072,241.785C88.155,241.798 88.233,241.818 88.307,241.845L88.107,242.685C87.987,242.638 87.833,242.615 87.647,242.615C87.453,242.615 87.275,242.652 87.112,242.725C86.948,242.798 86.807,242.9 86.687,243.03C86.567,243.16 86.472,243.312 86.402,243.485C86.332,243.658 86.297,243.842 86.297,244.035L86.297,246.485L85.397,246.485Z" style="fill-rule:nonzero;"/>
            <path d="M56.307,282.326L58.567,282.326C58.913,282.326 59.213,282.371 59.467,282.461C59.72,282.551 59.93,282.673 60.097,282.826C60.263,282.979 60.388,283.159 60.472,283.366C60.555,283.573 60.597,283.793 60.597,284.026C60.597,284.239 60.558,284.433 60.482,284.606C60.405,284.779 60.312,284.926 60.202,285.046C60.092,285.166 59.972,285.263 59.842,285.336C59.712,285.409 59.593,285.453 59.487,285.466C59.627,285.486 59.782,285.528 59.952,285.591C60.122,285.654 60.28,285.749 60.427,285.876C60.573,286.003 60.697,286.168 60.797,286.371C60.897,286.574 60.947,286.826 60.947,287.126C60.947,287.486 60.882,287.784 60.752,288.021C60.622,288.258 60.445,288.449 60.222,288.596C59.998,288.743 59.733,288.846 59.427,288.906C59.12,288.966 58.793,288.996 58.447,288.996L56.307,288.996L56.307,282.326ZM58.427,285.106C58.573,285.106 58.72,285.088 58.867,285.051C59.013,285.014 59.147,284.956 59.267,284.876C59.387,284.796 59.483,284.693 59.557,284.566C59.63,284.439 59.667,284.286 59.667,284.106C59.667,283.906 59.63,283.744 59.557,283.621C59.483,283.498 59.387,283.401 59.267,283.331C59.147,283.261 59.013,283.214 58.867,283.191C58.72,283.168 58.573,283.156 58.427,283.156L57.237,283.156L57.237,285.106L58.427,285.106ZM58.397,288.166C58.57,288.166 58.75,288.156 58.937,288.136C59.123,288.116 59.295,288.069 59.452,287.996C59.608,287.923 59.737,287.814 59.837,287.671C59.937,287.528 59.987,287.329 59.987,287.076C59.987,286.836 59.938,286.643 59.842,286.496C59.745,286.349 59.622,286.233 59.472,286.146C59.322,286.059 59.157,286.001 58.977,285.971C58.797,285.941 58.623,285.926 58.457,285.926L57.237,285.926L57.237,288.166L58.397,288.166Z" style="fill-rule:nonzero;"/>
            <path d="M61.977,282.506L62.987,282.506L62.987,283.516L61.977,283.516L61.977,282.506ZM62.037,284.346L62.937,284.346L62.937,288.996L62.037,288.996L62.037,284.346Z" style="fill-rule:nonzero;"/>
            <path d="M64.147,290.996L64.147,284.821C64.147,284.671 64.143,284.513 64.137,284.346L64.997,284.346L65.027,285.006C65.073,284.946 65.14,284.873 65.227,284.786C65.313,284.699 65.422,284.616 65.552,284.536C65.682,284.456 65.833,284.388 66.007,284.331C66.18,284.274 66.38,284.246 66.607,284.246C66.967,284.246 67.278,284.313 67.542,284.446C67.805,284.579 68.023,284.759 68.197,284.986C68.37,285.213 68.498,285.473 68.582,285.766C68.665,286.059 68.707,286.369 68.707,286.696C68.707,287.116 68.635,287.479 68.492,287.786C68.348,288.093 68.162,288.346 67.932,288.546C67.702,288.746 67.445,288.894 67.162,288.991C66.878,289.088 66.6,289.136 66.327,289.136C66.013,289.136 65.762,289.104 65.572,289.041C65.382,288.978 65.203,288.909 65.037,288.836L65.037,290.996L64.147,290.996ZM65.037,287.986C65.143,288.073 65.297,288.156 65.497,288.236C65.697,288.316 65.947,288.356 66.247,288.356C66.473,288.356 66.682,288.314 66.872,288.231C67.062,288.148 67.225,288.031 67.362,287.881C67.498,287.731 67.603,287.556 67.677,287.356C67.75,287.156 67.787,286.936 67.787,286.696C67.787,286.469 67.762,286.256 67.712,286.056C67.662,285.856 67.582,285.679 67.472,285.526C67.362,285.373 67.22,285.251 67.047,285.161C66.873,285.071 66.66,285.026 66.407,285.026C66.087,285.026 65.813,285.114 65.587,285.291C65.36,285.468 65.2,285.726 65.107,286.066C65.073,286.173 65.053,286.288 65.047,286.411C65.04,286.534 65.037,286.663 65.037,286.796L65.037,287.986Z" style="fill-rule:nonzero;"/>
            <path d="M71.897,289.136C71.537,289.136 71.207,289.071 70.907,288.941C70.607,288.811 70.348,288.633 70.132,288.406C69.915,288.179 69.745,287.918 69.622,287.621C69.498,287.324 69.437,287.006 69.437,286.666C69.437,286.326 69.498,286.008 69.622,285.711C69.745,285.414 69.915,285.153 70.132,284.926C70.348,284.699 70.607,284.521 70.907,284.391C71.207,284.261 71.537,284.196 71.897,284.196C72.25,284.196 72.577,284.261 72.877,284.391C73.177,284.521 73.437,284.699 73.657,284.926C73.877,285.153 74.048,285.414 74.172,285.711C74.295,286.008 74.357,286.326 74.357,286.666C74.357,287.006 74.295,287.324 74.172,287.621C74.048,287.918 73.877,288.179 73.657,288.406C73.437,288.633 73.177,288.811 72.877,288.941C72.577,289.071 72.25,289.136 71.897,289.136ZM71.897,288.356C72.137,288.356 72.353,288.308 72.547,288.211C72.74,288.114 72.903,287.988 73.037,287.831C73.17,287.674 73.272,287.494 73.342,287.291C73.412,287.088 73.447,286.879 73.447,286.666C73.447,286.459 73.412,286.254 73.342,286.051C73.272,285.848 73.168,285.666 73.032,285.506C72.895,285.346 72.732,285.218 72.542,285.121C72.352,285.024 72.137,284.976 71.897,284.976C71.657,284.976 71.44,285.024 71.247,285.121C71.053,285.218 70.89,285.344 70.757,285.501C70.623,285.658 70.522,285.838 70.452,286.041C70.382,286.244 70.347,286.453 70.347,286.666C70.347,286.879 70.382,287.086 70.452,287.286C70.522,287.486 70.625,287.666 70.762,287.826C70.898,287.986 71.062,288.114 71.252,288.211C71.442,288.308 71.657,288.356 71.897,288.356Z" style="fill-rule:nonzero;"/>
            <rect x="75.307" y="282.326" width="0.9" height="6.67" style="fill-rule:nonzero;"/>
            <path d="M80.277,286.796C80.25,286.789 80.198,286.781 80.122,286.771C80.045,286.761 79.957,286.753 79.857,286.746C79.757,286.739 79.65,286.733 79.537,286.726C79.423,286.719 79.313,286.716 79.207,286.716C78.953,286.716 78.748,286.746 78.592,286.806C78.435,286.866 78.312,286.941 78.222,287.031C78.132,287.121 78.07,287.221 78.037,287.331C78.003,287.441 77.987,287.546 77.987,287.646C77.987,287.899 78.073,288.091 78.247,288.221C78.42,288.351 78.66,288.416 78.967,288.416C79.14,288.416 79.305,288.386 79.462,288.326C79.618,288.266 79.757,288.186 79.877,288.086C79.997,287.986 80.093,287.869 80.167,287.736C80.24,287.603 80.277,287.466 80.277,287.326L80.277,286.796ZM80.287,288.436C80.113,288.669 79.885,288.843 79.602,288.956C79.318,289.069 79.027,289.126 78.727,289.126C78.533,289.126 78.342,289.101 78.152,289.051C77.962,289.001 77.788,288.918 77.632,288.801C77.475,288.684 77.348,288.534 77.252,288.351C77.155,288.168 77.107,287.943 77.107,287.676C77.107,287.176 77.282,286.776 77.632,286.476C77.982,286.176 78.487,286.026 79.147,286.026C79.253,286.026 79.367,286.029 79.487,286.036C79.607,286.043 79.72,286.049 79.827,286.056C79.933,286.063 80.027,286.069 80.107,286.076C80.187,286.083 80.243,286.089 80.277,286.096L80.277,285.926C80.277,285.579 80.172,285.331 79.962,285.181C79.752,285.031 79.467,284.956 79.107,284.956C78.753,284.956 78.473,285.004 78.267,285.101C78.06,285.198 77.887,285.296 77.747,285.396L77.327,284.786C77.407,284.719 77.503,284.653 77.617,284.586C77.73,284.519 77.863,284.458 78.017,284.401C78.17,284.344 78.343,284.298 78.537,284.261C78.73,284.224 78.953,284.206 79.207,284.206C79.807,284.206 80.278,284.351 80.622,284.641C80.965,284.931 81.137,285.343 81.137,285.876L81.137,288.581C81.137,288.744 81.14,288.883 81.147,288.996L80.307,288.996L80.287,288.436Z" style="fill-rule:nonzero;"/>
            <path d="M82.297,288.996L82.297,284.791C82.297,284.648 82.293,284.499 82.287,284.346L83.147,284.346L83.177,285.096C83.23,285.016 83.3,284.928 83.387,284.831C83.473,284.734 83.578,284.646 83.702,284.566C83.825,284.486 83.968,284.418 84.132,284.361C84.295,284.304 84.483,284.276 84.697,284.276C84.797,284.276 84.888,284.283 84.972,284.296C85.055,284.309 85.133,284.329 85.207,284.356L85.007,285.196C84.887,285.149 84.733,285.126 84.547,285.126C84.353,285.126 84.175,285.163 84.012,285.236C83.848,285.309 83.707,285.411 83.587,285.541C83.467,285.671 83.372,285.823 83.302,285.996C83.232,286.169 83.197,286.353 83.197,286.546L83.197,288.996L82.297,288.996Z" style="fill-rule:nonzero;"/>
        </g>
        <g>
            <path d="M60.242,168.365L61.312,168.365L63.342,173.845L65.372,168.365L66.382,168.365L63.802,175.035L62.822,175.035L60.242,168.365Z" style="fill-rule:nonzero;"/>
            <path d="M72.832,173.865C72.758,173.985 72.645,174.122 72.492,174.275C72.338,174.429 72.152,174.574 71.932,174.71C71.712,174.847 71.458,174.962 71.172,175.055C70.885,175.149 70.568,175.195 70.222,175.195C69.728,175.195 69.278,175.109 68.872,174.935C68.465,174.762 68.115,174.52 67.822,174.21C67.528,173.9 67.3,173.534 67.137,173.11C66.973,172.687 66.892,172.225 66.892,171.725C66.892,171.239 66.973,170.782 67.137,170.355C67.3,169.929 67.528,169.555 67.822,169.235C68.115,168.915 68.467,168.664 68.877,168.48C69.287,168.297 69.742,168.205 70.242,168.205C70.595,168.205 70.912,168.249 71.192,168.335C71.472,168.422 71.717,168.53 71.927,168.66C72.137,168.79 72.317,168.932 72.467,169.085C72.617,169.239 72.738,169.385 72.832,169.525L72.152,170.105C72.072,169.992 71.977,169.874 71.867,169.75C71.757,169.627 71.625,169.515 71.472,169.415C71.318,169.315 71.142,169.232 70.942,169.165C70.742,169.099 70.512,169.065 70.252,169.065C69.885,169.065 69.557,169.135 69.267,169.275C68.977,169.415 68.73,169.605 68.527,169.845C68.323,170.085 68.168,170.365 68.062,170.685C67.955,171.005 67.902,171.345 67.902,171.705C67.902,172.065 67.957,172.404 68.067,172.72C68.177,173.037 68.332,173.312 68.532,173.545C68.732,173.779 68.975,173.962 69.262,174.095C69.548,174.229 69.868,174.295 70.222,174.295C70.522,174.295 70.78,174.257 70.997,174.18C71.213,174.104 71.397,174.012 71.547,173.905C71.697,173.799 71.82,173.69 71.917,173.58C72.013,173.47 72.095,173.379 72.162,173.305L72.832,173.865Z" style="fill-rule:nonzero;"/>
            <path d="M76.822,175.205C76.342,175.205 75.895,175.114 75.482,174.93C75.068,174.747 74.708,174.497 74.402,174.18C74.095,173.864 73.855,173.492 73.682,173.065C73.508,172.639 73.422,172.182 73.422,171.695C73.422,171.209 73.508,170.754 73.682,170.33C73.855,169.907 74.093,169.537 74.397,169.22C74.7,168.904 75.06,168.654 75.477,168.47C75.893,168.287 76.342,168.195 76.822,168.195C77.302,168.195 77.75,168.287 78.167,168.47C78.583,168.654 78.945,168.904 79.252,169.22C79.558,169.537 79.798,169.907 79.972,170.33C80.145,170.754 80.232,171.209 80.232,171.695C80.232,172.182 80.145,172.639 79.972,173.065C79.798,173.492 79.558,173.864 79.252,174.18C78.945,174.497 78.583,174.747 78.167,174.93C77.75,175.114 77.302,175.205 76.822,175.205ZM76.822,174.305C77.188,174.305 77.52,174.235 77.817,174.095C78.113,173.955 78.367,173.765 78.577,173.525C78.787,173.285 78.948,173.007 79.062,172.69C79.175,172.374 79.232,172.039 79.232,171.685C79.232,171.325 79.175,170.987 79.062,170.67C78.948,170.354 78.787,170.075 78.577,169.835C78.367,169.595 78.113,169.407 77.817,169.27C77.52,169.134 77.188,169.065 76.822,169.065C76.455,169.065 76.125,169.134 75.832,169.27C75.538,169.407 75.287,169.595 75.077,169.835C74.867,170.075 74.705,170.354 74.592,170.67C74.478,170.987 74.422,171.325 74.422,171.685C74.422,172.039 74.478,172.374 74.592,172.69C74.705,173.007 74.867,173.285 75.077,173.525C75.287,173.765 75.538,173.955 75.832,174.095C76.125,174.235 76.455,174.305 76.822,174.305Z" style="fill-rule:nonzero;"/>
            <path d="M62.207,210.876L63.167,210.876L63.167,216.696L66.637,216.696L66.637,217.546L62.207,217.546L62.207,210.876Z" style="fill-rule:nonzero;"/>
            <path d="M67.617,210.876L71.807,210.876L71.807,211.736L68.577,211.736L68.577,213.776L71.037,213.776L71.037,214.626L68.577,214.626L68.577,217.546L67.617,217.546L67.617,210.876Z" style="fill-rule:nonzero;"/>
            <path d="M75.517,217.716C75.037,217.716 74.59,217.625 74.177,217.441C73.763,217.258 73.403,217.008 73.097,216.691C72.79,216.375 72.55,216.003 72.377,215.576C72.203,215.15 72.117,214.693 72.117,214.206C72.117,213.72 72.203,213.265 72.377,212.841C72.55,212.418 72.788,212.048 73.092,211.731C73.395,211.415 73.755,211.165 74.172,210.981C74.588,210.798 75.037,210.706 75.517,210.706C75.997,210.706 76.445,210.798 76.862,210.981C77.278,211.165 77.64,211.415 77.947,211.731C78.253,212.048 78.493,212.418 78.667,212.841C78.84,213.265 78.927,213.72 78.927,214.206C78.927,214.693 78.84,215.15 78.667,215.576C78.493,216.003 78.253,216.375 77.947,216.691C77.64,217.008 77.278,217.258 76.862,217.441C76.445,217.625 75.997,217.716 75.517,217.716ZM75.517,216.816C75.883,216.816 76.215,216.746 76.512,216.606C76.808,216.466 77.062,216.276 77.272,216.036C77.482,215.796 77.643,215.518 77.757,215.201C77.87,214.885 77.927,214.55 77.927,214.196C77.927,213.836 77.87,213.498 77.757,213.181C77.643,212.865 77.482,212.586 77.272,212.346C77.062,212.106 76.808,211.918 76.512,211.781C76.215,211.645 75.883,211.576 75.517,211.576C75.15,211.576 74.82,211.645 74.527,211.781C74.233,211.918 73.982,212.106 73.772,212.346C73.562,212.586 73.4,212.865 73.287,213.181C73.173,213.498 73.117,213.836 73.117,214.196C73.117,214.55 73.173,214.885 73.287,215.201C73.4,215.518 73.562,215.796 73.772,216.036C73.982,216.276 74.233,216.466 74.527,216.606C74.82,216.746 75.15,216.816 75.517,216.816Z" style="fill-rule:nonzero;"/>
        </g>
    </g>
    <g id="text">
    </g>
</svg>
