<?xml version="1.0" encoding="UTF-8" standalone="no"?>
<!DOCTYPE svg PUBLIC "-//W3C//DTD SVG 1.1//EN" "http://www.w3.org/Graphics/SVG/1.1/DTD/svg11.dtd">
<svg width="100%" height="100%" viewBox="0 0 240 380" version="1.1" xmlns="http://www.w3.org/2000/svg" xmlns:xlink="http://www.w3.org/1999/xlink" xml:space="preserve" xmlns:serif="http://www.serif.com/" style="fill-rule:evenodd;clip-rule:evenodd;stroke-miterlimit:10;">
    <g id="rect817" transform="matrix(1,0,0,1,177,-230.9)">
        <rect x="-177" y="230.9" width="240" height="380" style="fill:rgb(230,230,230);fill-rule:nonzero;"/>
    </g>
    <g id="rect1086" transform="matrix(1,0,0,1,177,-230.9)">
        <path d="M-78,495.3L54,495.3C55.662,495.3 57,496.638 57,498.3L57,570.3C57,571.962 55.662,573.3 54,573.3L-78,573.3C-79.662,573.3 -81,571.962 -81,570.3L-81,498.3C-81,496.638 -79.662,495.3 -78,495.3Z" style="fill-rule:nonzero;"/>
    </g>
    <g id="text828">
    </g>
    <g id="text830">
    </g>
    <g id="line838" transform="matrix(1,0,0,1,177,-230.9)">
        <path d="M-35.5,290.3L-35.5,552.3" style="fill:none;fill-rule:nonzero;stroke:rgb(29,29,29);stroke-width:1px;"/>
    </g>
    <g id="line840" transform="matrix(1,0,0,1,177,-230.9)">
        <path d="M0.5,353.8L0.5,552.3" style="fill:none;fill-rule:nonzero;stroke:rgb(29,29,29);stroke-width:1px;"/>
    </g>
    <g id="line842" transform="matrix(1,0,0,1,177,-230.9)">
        <path d="M36.5,416.4L36.5,552.3" style="fill:none;fill-rule:nonzero;stroke:rgb(29,29,29);stroke-width:1px;"/>
    </g>
    <g id="text844" transform="matrix(1,0,0,1,126.975,224.954)">
        <path id="path1271" d="M2.016,0.023L2.016,-7.236L0.797,-6.346L0.797,-7.646L2.016,-8.531L3.246,-8.531L3.246,0.023L2.016,0.023Z" style="fill:rgb(29,29,29);fill-rule:nonzero;"/>
    </g>
    <g id="text846" transform="matrix(1,0,0,1,162.12,224.953)">
        <path id="path1274" d="M0.393,0.006L0.393,-1.143L3.732,-5.32C3.861,-5.484 3.945,-5.635 3.984,-5.771C4.023,-5.908 4.043,-6.041 4.043,-6.17C4.043,-6.467 3.938,-6.742 3.727,-6.996C3.516,-7.254 3.229,-7.383 2.865,-7.383C2.533,-7.383 2.248,-7.271 2.01,-7.049C1.775,-6.83 1.645,-6.529 1.617,-6.146L0.393,-6.146C0.396,-6.838 0.633,-7.42 1.102,-7.893C1.57,-8.369 2.127,-8.607 2.771,-8.607C3.482,-8.607 4.074,-8.367 4.547,-7.887C5.023,-7.41 5.262,-6.834 5.262,-6.158C5.262,-5.58 5.092,-5.08 4.752,-4.658L2.004,-1.213L5.262,-1.213L5.262,0.006L0.393,0.006Z" style="fill:rgb(29,29,29);fill-rule:nonzero;"/>
    </g>
    <g id="text848" transform="matrix(1,0,0,1,198.12,224.883)">
        <path id="path1277" d="M2.121,-3.855L2.121,-4.934L2.543,-4.934C2.949,-4.934 3.27,-5.047 3.504,-5.273C3.742,-5.504 3.861,-5.795 3.861,-6.146C3.861,-6.494 3.738,-6.787 3.492,-7.025C3.246,-7.264 2.953,-7.383 2.613,-7.383C2.355,-7.383 2.111,-7.297 1.881,-7.125C1.65,-6.953 1.502,-6.695 1.436,-6.352L0.211,-6.352C0.258,-6.953 0.51,-7.479 0.967,-7.928C1.424,-8.381 1.957,-8.607 2.566,-8.607C3.328,-8.607 3.938,-8.355 4.395,-7.852C4.855,-7.352 5.086,-6.791 5.086,-6.17C5.086,-5.842 5.021,-5.521 4.893,-5.209C4.764,-4.9 4.523,-4.633 4.172,-4.406C4.531,-4.176 4.789,-3.893 4.945,-3.557C5.102,-3.221 5.18,-2.881 5.18,-2.537C5.18,-1.74 4.93,-1.105 4.43,-0.633C3.93,-0.16 3.316,0.076 2.59,0.076C2.012,0.076 1.49,-0.109 1.025,-0.48C0.564,-0.855 0.277,-1.4 0.164,-2.115L1.389,-2.115C1.502,-1.822 1.654,-1.586 1.846,-1.406C2.037,-1.23 2.309,-1.143 2.66,-1.143C3,-1.143 3.301,-1.262 3.563,-1.5C3.824,-1.742 3.955,-2.074 3.955,-2.496C3.955,-2.922 3.824,-3.254 3.563,-3.492C3.305,-3.734 2.996,-3.855 2.637,-3.855L2.121,-3.855Z" style="fill:rgb(29,29,29);fill-rule:nonzero;"/>
    </g>
    <g id="text850">
    </g>
    <g id="text852">
    </g>
    <g id="text4613">
    </g>
    <g id="text4617">
    </g>
    <g transform="matrix(1,0,0,1,-62.0015,0)">
        <g transform="matrix(18,0,0,18,120.384,28.8369)">
            <path d="M0.076,-0.667L0.287,-0.667C0.332,-0.667 0.37,-0.661 0.4,-0.648C0.429,-0.635 0.453,-0.619 0.471,-0.6C0.488,-0.581 0.501,-0.559 0.508,-0.535C0.515,-0.511 0.518,-0.488 0.518,-0.465C0.518,-0.432 0.512,-0.402 0.501,-0.377C0.49,-0.352 0.474,-0.331 0.454,-0.314C0.434,-0.297 0.41,-0.284 0.383,-0.275C0.355,-0.266 0.325,-0.262 0.292,-0.262L0.171,-0.262L0.171,-0L0.076,-0L0.076,-0.667ZM0.291,-0.344C0.332,-0.344 0.364,-0.355 0.387,-0.376C0.409,-0.397 0.42,-0.426 0.42,-0.463C0.42,-0.501 0.409,-0.531 0.386,-0.553C0.363,-0.574 0.331,-0.585 0.291,-0.585L0.171,-0.585L0.171,-0.344L0.291,-0.344Z" style="fill-rule:nonzero;"/>
        </g>
        <g transform="matrix(18,0,0,18,129.756,28.8369)">
            <path d="M0.061,-0.667L0.15,-0.667L0.15,-0.396C0.156,-0.404 0.163,-0.413 0.172,-0.422C0.181,-0.431 0.191,-0.44 0.204,-0.448C0.217,-0.456 0.231,-0.463 0.248,-0.468C0.265,-0.473 0.284,-0.476 0.305,-0.476C0.366,-0.476 0.411,-0.458 0.44,-0.423C0.469,-0.388 0.484,-0.34 0.484,-0.279L0.484,-0L0.394,-0L0.394,-0.272C0.394,-0.315 0.385,-0.347 0.366,-0.368C0.347,-0.388 0.321,-0.398 0.287,-0.398C0.261,-0.398 0.239,-0.393 0.222,-0.382C0.205,-0.371 0.191,-0.358 0.181,-0.341C0.17,-0.324 0.163,-0.304 0.158,-0.283C0.153,-0.261 0.151,-0.239 0.151,-0.216L0.151,-0L0.061,-0L0.061,-0.667Z" style="fill-rule:nonzero;"/>
        </g>
        <g transform="matrix(18,0,0,18,139.074,28.8369)">
            <path d="M0.352,-0.22C0.349,-0.221 0.344,-0.222 0.337,-0.223C0.329,-0.224 0.32,-0.224 0.31,-0.225C0.3,-0.226 0.289,-0.226 0.278,-0.227C0.267,-0.228 0.256,-0.228 0.245,-0.228C0.22,-0.228 0.199,-0.225 0.184,-0.219C0.168,-0.213 0.156,-0.206 0.147,-0.197C0.137,-0.188 0.131,-0.178 0.128,-0.167C0.125,-0.156 0.123,-0.145 0.123,-0.135C0.123,-0.11 0.132,-0.091 0.149,-0.078C0.166,-0.065 0.19,-0.058 0.221,-0.058C0.238,-0.058 0.255,-0.061 0.271,-0.067C0.286,-0.073 0.3,-0.081 0.312,-0.091C0.324,-0.101 0.334,-0.113 0.341,-0.126C0.348,-0.139 0.352,-0.153 0.352,-0.167L0.352,-0.22ZM0.353,-0.056C0.336,-0.033 0.313,-0.015 0.285,-0.004C0.256,0.007 0.227,0.013 0.197,0.013C0.178,0.013 0.159,0.011 0.14,0.006C0.121,0 0.103,-0.008 0.088,-0.02C0.072,-0.031 0.059,-0.046 0.05,-0.065C0.04,-0.083 0.035,-0.105 0.035,-0.132C0.035,-0.182 0.053,-0.222 0.088,-0.252C0.123,-0.282 0.173,-0.297 0.239,-0.297C0.25,-0.297 0.261,-0.297 0.273,-0.296C0.285,-0.295 0.296,-0.295 0.307,-0.294C0.318,-0.293 0.327,-0.293 0.335,-0.292C0.343,-0.291 0.349,-0.291 0.352,-0.29L0.352,-0.307C0.352,-0.342 0.341,-0.367 0.321,-0.382C0.3,-0.397 0.271,-0.404 0.235,-0.404C0.2,-0.404 0.172,-0.399 0.151,-0.39C0.13,-0.38 0.113,-0.37 0.099,-0.36L0.057,-0.421C0.065,-0.428 0.075,-0.434 0.086,-0.441C0.097,-0.448 0.111,-0.454 0.126,-0.46C0.141,-0.465 0.159,-0.47 0.178,-0.474C0.197,-0.477 0.22,-0.479 0.245,-0.479C0.305,-0.479 0.352,-0.464 0.387,-0.436C0.421,-0.407 0.438,-0.365 0.438,-0.312L0.438,-0.042C0.438,-0.025 0.438,-0.011 0.439,-0L0.355,-0L0.353,-0.056Z" style="fill-rule:nonzero;"/>
        </g>
        <g transform="matrix(18,0,0,18,147.6,28.8369)">
            <path d="M0.092,-0.117C0.109,-0.1 0.129,-0.087 0.152,-0.077C0.175,-0.067 0.202,-0.062 0.233,-0.062C0.263,-0.062 0.288,-0.067 0.308,-0.077C0.328,-0.086 0.338,-0.101 0.338,-0.122C0.338,-0.133 0.336,-0.142 0.332,-0.15C0.327,-0.157 0.32,-0.164 0.31,-0.17C0.299,-0.176 0.286,-0.182 0.269,-0.187C0.252,-0.192 0.23,-0.197 0.205,-0.203C0.187,-0.207 0.169,-0.212 0.152,-0.219C0.134,-0.226 0.118,-0.235 0.104,-0.246C0.09,-0.257 0.079,-0.27 0.07,-0.286C0.061,-0.301 0.057,-0.32 0.057,-0.342C0.057,-0.365 0.062,-0.385 0.073,-0.402C0.083,-0.419 0.097,-0.433 0.114,-0.445C0.131,-0.456 0.151,-0.465 0.173,-0.471C0.194,-0.477 0.217,-0.48 0.24,-0.48C0.279,-0.48 0.313,-0.475 0.342,-0.465C0.37,-0.454 0.395,-0.44 0.416,-0.421L0.367,-0.359C0.353,-0.372 0.335,-0.382 0.315,-0.391C0.294,-0.4 0.269,-0.404 0.241,-0.404C0.212,-0.404 0.189,-0.399 0.172,-0.39C0.155,-0.381 0.146,-0.365 0.146,-0.344C0.146,-0.324 0.158,-0.309 0.181,-0.3C0.204,-0.29 0.234,-0.281 0.271,-0.272C0.293,-0.267 0.314,-0.261 0.333,-0.254C0.352,-0.247 0.368,-0.238 0.383,-0.227C0.397,-0.216 0.408,-0.202 0.417,-0.186C0.425,-0.17 0.429,-0.151 0.429,-0.128C0.429,-0.105 0.424,-0.084 0.413,-0.067C0.402,-0.049 0.388,-0.034 0.37,-0.022C0.352,-0.01 0.331,-0.001 0.308,0.005C0.285,0.011 0.26,0.014 0.235,0.014C0.147,0.014 0.081,-0.01 0.037,-0.057L0.092,-0.117Z" style="fill-rule:nonzero;"/>
        </g>
        <g transform="matrix(18,0,0,18,155.64,28.8369)">
            <path d="M0.286,0.014C0.25,0.014 0.217,0.008 0.187,-0.006C0.157,-0.019 0.131,-0.036 0.11,-0.059C0.088,-0.082 0.071,-0.108 0.059,-0.138C0.046,-0.167 0.04,-0.199 0.04,-0.233C0.04,-0.267 0.046,-0.299 0.059,-0.329C0.071,-0.358 0.088,-0.384 0.11,-0.407C0.131,-0.43 0.157,-0.448 0.187,-0.461C0.217,-0.474 0.25,-0.48 0.286,-0.48C0.321,-0.48 0.354,-0.474 0.384,-0.461C0.414,-0.448 0.44,-0.43 0.462,-0.407C0.484,-0.384 0.501,-0.358 0.514,-0.329C0.526,-0.299 0.532,-0.267 0.532,-0.233C0.532,-0.199 0.526,-0.167 0.514,-0.138C0.501,-0.108 0.484,-0.082 0.462,-0.059C0.44,-0.036 0.414,-0.019 0.384,-0.006C0.354,0.008 0.321,0.014 0.286,0.014ZM0.286,-0.064C0.31,-0.064 0.332,-0.069 0.351,-0.079C0.37,-0.088 0.387,-0.101 0.4,-0.117C0.413,-0.132 0.424,-0.15 0.431,-0.171C0.438,-0.191 0.441,-0.212 0.441,-0.233C0.441,-0.254 0.438,-0.274 0.431,-0.295C0.424,-0.315 0.413,-0.333 0.4,-0.349C0.386,-0.365 0.37,-0.378 0.351,-0.388C0.332,-0.397 0.31,-0.402 0.286,-0.402C0.262,-0.402 0.24,-0.397 0.221,-0.388C0.202,-0.378 0.185,-0.365 0.172,-0.35C0.159,-0.334 0.149,-0.316 0.142,-0.296C0.135,-0.275 0.131,-0.254 0.131,-0.233C0.131,-0.212 0.135,-0.191 0.142,-0.171C0.149,-0.151 0.159,-0.133 0.173,-0.117C0.186,-0.101 0.203,-0.088 0.222,-0.079C0.241,-0.069 0.262,-0.064 0.286,-0.064Z" style="fill-rule:nonzero;"/>
        </g>
        <g transform="matrix(18,0,0,18,165.48,28.8369)">
            <path d="M0.062,-0L0.062,-0.421C0.062,-0.435 0.062,-0.45 0.061,-0.465L0.147,-0.465L0.15,-0.39C0.155,-0.398 0.162,-0.407 0.171,-0.417C0.18,-0.426 0.19,-0.435 0.203,-0.443C0.215,-0.451 0.229,-0.458 0.246,-0.464C0.262,-0.469 0.281,-0.472 0.302,-0.472C0.312,-0.472 0.321,-0.471 0.33,-0.47C0.338,-0.469 0.346,-0.467 0.353,-0.464L0.333,-0.38C0.321,-0.385 0.306,-0.387 0.287,-0.387C0.268,-0.387 0.25,-0.383 0.234,-0.376C0.217,-0.369 0.203,-0.359 0.191,-0.346C0.179,-0.333 0.17,-0.317 0.163,-0.3C0.156,-0.283 0.152,-0.264 0.152,-0.245L0.152,-0L0.062,-0Z" style="fill-rule:nonzero;"/>
        </g>
        <g transform="matrix(18,0,0,18,174.378,28.8369)">
            <path d="M0.076,-0.667L0.302,-0.667C0.337,-0.667 0.367,-0.663 0.392,-0.654C0.417,-0.645 0.438,-0.632 0.455,-0.617C0.472,-0.602 0.484,-0.584 0.493,-0.563C0.501,-0.542 0.505,-0.52 0.505,-0.497C0.505,-0.476 0.501,-0.456 0.494,-0.439C0.486,-0.422 0.476,-0.407 0.466,-0.395C0.455,-0.383 0.443,-0.373 0.43,-0.366C0.417,-0.359 0.405,-0.354 0.394,-0.353C0.408,-0.351 0.424,-0.347 0.441,-0.341C0.458,-0.334 0.473,-0.325 0.488,-0.312C0.503,-0.299 0.515,-0.283 0.525,-0.263C0.535,-0.242 0.54,-0.217 0.54,-0.187C0.54,-0.151 0.534,-0.121 0.521,-0.098C0.507,-0.074 0.49,-0.055 0.468,-0.04C0.445,-0.025 0.419,-0.015 0.388,-0.009C0.357,-0.003 0.325,-0 0.29,-0L0.076,-0L0.076,-0.667ZM0.288,-0.389C0.303,-0.389 0.317,-0.391 0.332,-0.395C0.347,-0.398 0.36,-0.404 0.372,-0.412C0.384,-0.42 0.394,-0.43 0.401,-0.443C0.408,-0.456 0.412,-0.471 0.412,-0.489C0.412,-0.509 0.408,-0.525 0.401,-0.538C0.394,-0.55 0.384,-0.56 0.372,-0.567C0.36,-0.574 0.347,-0.578 0.332,-0.581C0.317,-0.583 0.303,-0.584 0.288,-0.584L0.169,-0.584L0.169,-0.389L0.288,-0.389ZM0.285,-0.083C0.302,-0.083 0.32,-0.084 0.339,-0.086C0.358,-0.088 0.375,-0.093 0.391,-0.1C0.406,-0.107 0.419,-0.118 0.429,-0.133C0.439,-0.147 0.444,-0.167 0.444,-0.192C0.444,-0.216 0.439,-0.235 0.43,-0.25C0.42,-0.265 0.408,-0.276 0.393,-0.285C0.378,-0.294 0.361,-0.3 0.343,-0.303C0.325,-0.306 0.308,-0.307 0.291,-0.307L0.169,-0.307L0.169,-0.083L0.285,-0.083Z" style="fill-rule:nonzero;"/>
        </g>
        <g transform="matrix(18,0,0,18,184.542,28.8369)">
            <path d="M0.486,-0.068C0.481,-0.062 0.473,-0.054 0.462,-0.045C0.451,-0.036 0.438,-0.027 0.421,-0.018C0.404,-0.009 0.384,-0.002 0.361,0.005C0.337,0.011 0.311,0.014 0.282,0.014C0.246,0.014 0.213,0.008 0.183,-0.004C0.153,-0.016 0.127,-0.033 0.106,-0.055C0.085,-0.077 0.068,-0.103 0.057,-0.134C0.045,-0.165 0.039,-0.199 0.039,-0.236C0.039,-0.27 0.045,-0.302 0.056,-0.332C0.067,-0.361 0.083,-0.387 0.104,-0.409C0.125,-0.43 0.149,-0.447 0.178,-0.46C0.206,-0.473 0.237,-0.479 0.271,-0.479C0.311,-0.479 0.345,-0.471 0.374,-0.456C0.403,-0.441 0.426,-0.42 0.445,-0.395C0.463,-0.37 0.476,-0.341 0.485,-0.308C0.494,-0.275 0.498,-0.241 0.498,-0.206L0.131,-0.206C0.132,-0.185 0.136,-0.166 0.145,-0.149C0.153,-0.132 0.164,-0.117 0.178,-0.104C0.192,-0.091 0.208,-0.081 0.226,-0.074C0.244,-0.067 0.263,-0.063 0.283,-0.063C0.322,-0.063 0.355,-0.07 0.38,-0.083C0.405,-0.096 0.424,-0.109 0.435,-0.122L0.486,-0.068ZM0.405,-0.273C0.402,-0.309 0.39,-0.34 0.367,-0.365C0.344,-0.39 0.312,-0.403 0.271,-0.403C0.25,-0.403 0.231,-0.399 0.214,-0.392C0.197,-0.385 0.182,-0.375 0.17,-0.363C0.158,-0.351 0.149,-0.337 0.142,-0.322C0.135,-0.306 0.132,-0.29 0.131,-0.273L0.405,-0.273Z" style="fill-rule:nonzero;"/>
        </g>
        <g transform="matrix(18,0,0,18,193.734,28.8369)">
            <path d="M0.352,-0.22C0.349,-0.221 0.344,-0.222 0.337,-0.223C0.329,-0.224 0.32,-0.224 0.31,-0.225C0.3,-0.226 0.289,-0.226 0.278,-0.227C0.267,-0.228 0.256,-0.228 0.245,-0.228C0.22,-0.228 0.199,-0.225 0.184,-0.219C0.168,-0.213 0.156,-0.206 0.147,-0.197C0.137,-0.188 0.131,-0.178 0.128,-0.167C0.125,-0.156 0.123,-0.145 0.123,-0.135C0.123,-0.11 0.132,-0.091 0.149,-0.078C0.166,-0.065 0.19,-0.058 0.221,-0.058C0.238,-0.058 0.255,-0.061 0.271,-0.067C0.286,-0.073 0.3,-0.081 0.312,-0.091C0.324,-0.101 0.334,-0.113 0.341,-0.126C0.348,-0.139 0.352,-0.153 0.352,-0.167L0.352,-0.22ZM0.353,-0.056C0.336,-0.033 0.313,-0.015 0.285,-0.004C0.256,0.007 0.227,0.013 0.197,0.013C0.178,0.013 0.159,0.011 0.14,0.006C0.121,0 0.103,-0.008 0.088,-0.02C0.072,-0.031 0.059,-0.046 0.05,-0.065C0.04,-0.083 0.035,-0.105 0.035,-0.132C0.035,-0.182 0.053,-0.222 0.088,-0.252C0.123,-0.282 0.173,-0.297 0.239,-0.297C0.25,-0.297 0.261,-0.297 0.273,-0.296C0.285,-0.295 0.296,-0.295 0.307,-0.294C0.318,-0.293 0.327,-0.293 0.335,-0.292C0.343,-0.291 0.349,-0.291 0.352,-0.29L0.352,-0.307C0.352,-0.342 0.341,-0.367 0.321,-0.382C0.3,-0.397 0.271,-0.404 0.235,-0.404C0.2,-0.404 0.172,-0.399 0.151,-0.39C0.13,-0.38 0.113,-0.37 0.099,-0.36L0.057,-0.421C0.065,-0.428 0.075,-0.434 0.086,-0.441C0.097,-0.448 0.111,-0.454 0.126,-0.46C0.141,-0.465 0.159,-0.47 0.178,-0.474C0.197,-0.477 0.22,-0.479 0.245,-0.479C0.305,-0.479 0.352,-0.464 0.387,-0.436C0.421,-0.407 0.438,-0.365 0.438,-0.312L0.438,-0.042C0.438,-0.025 0.438,-0.011 0.439,-0L0.355,-0L0.353,-0.056Z" style="fill-rule:nonzero;"/>
        </g>
        <g transform="matrix(18,0,0,18,202.26,28.8369)">
            <path d="M0.102,-0.39L0.018,-0.39L0.018,-0.465L0.102,-0.465L0.102,-0.617L0.192,-0.617L0.192,-0.465L0.328,-0.465L0.328,-0.39L0.192,-0.39L0.192,-0.161C0.192,-0.124 0.198,-0.098 0.21,-0.084C0.221,-0.07 0.238,-0.063 0.259,-0.063C0.276,-0.063 0.291,-0.066 0.302,-0.071C0.313,-0.076 0.325,-0.084 0.336,-0.095L0.377,-0.04C0.358,-0.021 0.338,-0.008 0.318,0.001C0.297,0.009 0.273,0.013 0.245,0.013C0.196,0.013 0.16,-0 0.137,-0.027C0.114,-0.054 0.102,-0.095 0.102,-0.152L0.102,-0.39Z" style="fill-rule:nonzero;"/>
        </g>
        <g transform="matrix(18,0,0,18,211.518,28.8369)">
            <path d="M0.099,-0.667L0.191,-0.667L0.394,-0.32L0.597,-0.667L0.687,-0.667L0.718,-0L0.624,-0L0.602,-0.512L0.414,-0.197L0.366,-0.197L0.181,-0.508L0.158,-0L0.068,-0L0.099,-0.667Z" style="fill-rule:nonzero;"/>
        </g>
        <g transform="matrix(18,0,0,18,225.048,28.8369)">
            <path d="M0.352,-0.22C0.349,-0.221 0.344,-0.222 0.337,-0.223C0.329,-0.224 0.32,-0.224 0.31,-0.225C0.3,-0.226 0.289,-0.226 0.278,-0.227C0.267,-0.228 0.256,-0.228 0.245,-0.228C0.22,-0.228 0.199,-0.225 0.184,-0.219C0.168,-0.213 0.156,-0.206 0.147,-0.197C0.137,-0.188 0.131,-0.178 0.128,-0.167C0.125,-0.156 0.123,-0.145 0.123,-0.135C0.123,-0.11 0.132,-0.091 0.149,-0.078C0.166,-0.065 0.19,-0.058 0.221,-0.058C0.238,-0.058 0.255,-0.061 0.271,-0.067C0.286,-0.073 0.3,-0.081 0.312,-0.091C0.324,-0.101 0.334,-0.113 0.341,-0.126C0.348,-0.139 0.352,-0.153 0.352,-0.167L0.352,-0.22ZM0.353,-0.056C0.336,-0.033 0.313,-0.015 0.285,-0.004C0.256,0.007 0.227,0.013 0.197,0.013C0.178,0.013 0.159,0.011 0.14,0.006C0.121,0 0.103,-0.008 0.088,-0.02C0.072,-0.031 0.059,-0.046 0.05,-0.065C0.04,-0.083 0.035,-0.105 0.035,-0.132C0.035,-0.182 0.053,-0.222 0.088,-0.252C0.123,-0.282 0.173,-0.297 0.239,-0.297C0.25,-0.297 0.261,-0.297 0.273,-0.296C0.285,-0.295 0.296,-0.295 0.307,-0.294C0.318,-0.293 0.327,-0.293 0.335,-0.292C0.343,-0.291 0.349,-0.291 0.352,-0.29L0.352,-0.307C0.352,-0.342 0.341,-0.367 0.321,-0.382C0.3,-0.397 0.271,-0.404 0.235,-0.404C0.2,-0.404 0.172,-0.399 0.151,-0.39C0.13,-0.38 0.113,-0.37 0.099,-0.36L0.057,-0.421C0.065,-0.428 0.075,-0.434 0.086,-0.441C0.097,-0.448 0.111,-0.454 0.126,-0.46C0.141,-0.465 0.159,-0.47 0.178,-0.474C0.197,-0.477 0.22,-0.479 0.245,-0.479C0.305,-0.479 0.352,-0.464 0.387,-0.436C0.421,-0.407 0.438,-0.365 0.438,-0.312L0.438,-0.042C0.438,-0.025 0.438,-0.011 0.439,-0L0.355,-0L0.353,-0.056Z" style="fill-rule:nonzero;"/>
        </g>
        <g transform="matrix(18,0,0,18,233.574,28.8369)">
            <path d="M0.062,0.2L0.062,-0.418C0.062,-0.432 0.062,-0.448 0.061,-0.465L0.147,-0.465L0.15,-0.399C0.155,-0.405 0.161,-0.412 0.17,-0.421C0.179,-0.43 0.19,-0.438 0.203,-0.446C0.216,-0.454 0.231,-0.461 0.248,-0.467C0.265,-0.472 0.285,-0.475 0.308,-0.475C0.344,-0.475 0.375,-0.468 0.402,-0.455C0.428,-0.442 0.45,-0.424 0.467,-0.401C0.484,-0.378 0.497,-0.352 0.506,-0.323C0.514,-0.294 0.518,-0.263 0.518,-0.23C0.518,-0.188 0.511,-0.152 0.497,-0.121C0.482,-0.09 0.464,-0.065 0.441,-0.045C0.418,-0.025 0.392,-0.01 0.364,-0.001C0.335,0.009 0.307,0.014 0.28,0.014C0.249,0.014 0.224,0.011 0.205,0.005C0.186,-0.002 0.168,-0.009 0.151,-0.016L0.151,0.2L0.062,0.2ZM0.151,-0.101C0.162,-0.092 0.177,-0.084 0.197,-0.076C0.217,-0.068 0.242,-0.064 0.272,-0.064C0.295,-0.064 0.316,-0.068 0.335,-0.077C0.354,-0.085 0.37,-0.096 0.384,-0.112C0.397,-0.127 0.408,-0.144 0.415,-0.164C0.422,-0.184 0.426,-0.206 0.426,-0.23C0.426,-0.253 0.424,-0.274 0.419,-0.294C0.413,-0.314 0.406,-0.332 0.395,-0.347C0.384,-0.362 0.369,-0.375 0.352,-0.384C0.335,-0.393 0.313,-0.397 0.288,-0.397C0.256,-0.397 0.229,-0.388 0.206,-0.371C0.183,-0.353 0.167,-0.327 0.158,-0.293C0.155,-0.282 0.153,-0.271 0.152,-0.259C0.151,-0.246 0.151,-0.233 0.151,-0.22L0.151,-0.101Z" style="fill-rule:nonzero;"/>
        </g>
    </g>
    <g transform="matrix(1,0,0,1,29.0258,13)">
        <g transform="matrix(1,0,0,1,70.7842,350.154)">
            <path d="M0,11.424L-1.606,11.424L-1.606,6.093L-7.682,6.093L-7.682,11.424L-9.288,11.424L-9.288,0L-7.682,0L-7.682,4.719L-1.606,4.719L-1.606,0L0,0L0,11.424Z" style="fill:rgb(35,31,32);fill-rule:nonzero;"/>
        </g>
        <g transform="matrix(1,0,0,1,78.9917,350.154)">
            <path d="M0,11.424L-6.821,11.424L-6.821,0L-0.132,0L-0.132,1.342L-5.215,1.342L-5.215,4.752L-0.414,4.752L-0.414,6.093L-5.215,6.093L-5.215,10.067L0,10.067L0,11.424Z" style="fill:rgb(35,31,32);fill-rule:nonzero;"/>
        </g>
        <g transform="matrix(1,0,0,1,87.8652,360.236)">
            <path d="M0,-8.74L-3.212,-8.74L-3.212,1.342L-4.818,1.342L-4.818,-8.74L-8.046,-8.74L-8.046,-10.082L0,-10.082L0,-8.74Z" style="fill:rgb(35,31,32);fill-rule:nonzero;"/>
        </g>
        <g transform="matrix(1,0,0,1,93.5752,359.855)">
            <path d="M0,-7.978C-0.513,-8.359 -1.126,-8.392 -1.92,-8.392L-3.096,-8.392L-3.096,-4.518L-1.92,-4.518C-1.126,-4.518 -0.513,-4.551 0,-4.915C0.514,-5.296 0.729,-5.76 0.729,-6.456C0.729,-7.134 0.514,-7.614 0,-7.978M3.047,1.723L1.109,1.723L-1.871,-3.194L-3.096,-3.194L-3.096,1.723L-4.702,1.723L-4.702,-9.701L-1.474,-9.701C-0.331,-9.701 0.596,-9.435 1.275,-8.906C1.954,-8.359 2.384,-7.532 2.384,-6.489C2.384,-4.485 0.993,-3.591 -0.215,-3.359L3.047,1.723Z" style="fill:rgb(35,31,32);fill-rule:nonzero;"/>
        </g>
        <g transform="matrix(-1,0,0,1,197.233,331.732)">
            <rect x="97.814" y="18.422" width="1.605" height="11.424" style="fill:rgb(35,31,32);"/>
        </g>
        <g transform="matrix(1,0,0,1,110.542,351.678)">
            <path d="M0,8.41C-0.712,9.205 -2.003,10.099 -4.172,10.099C-7.5,10.099 -10.017,7.764 -10.017,4.205C-10.017,0.645 -7.45,-1.689 -4.172,-1.689C-2.036,-1.689 -0.745,-0.795 -0.116,-0.182L-0.795,1.109C-1.241,0.547 -2.517,-0.281 -4.105,-0.281C-6.572,-0.281 -8.36,1.49 -8.36,4.172C-8.36,6.854 -6.556,8.626 -4.105,8.626C-2.6,8.626 -1.44,8.047 -0.695,7.235L0,8.41Z" style="fill:rgb(237,50,36);fill-rule:nonzero;"/>
        </g>
        <g transform="matrix(1,0,0,1,120.452,350.154)">
            <path d="M0,11.424L-1.953,11.424L-5.745,5.695L-6.92,6.888L-6.92,11.424L-8.526,11.424L-8.526,0L-6.92,0L-6.92,4.868L-2.268,0L-0.314,0L-4.669,4.504L0,11.424Z" style="fill:rgb(237,50,36);fill-rule:nonzero;"/>
        </g>
        <g transform="matrix(1,0,0,1,120.452,354.658)">
            <path d="M0,6.92L-1.953,6.92L-5.745,1.191L-6.92,2.384L-6.92,6.92L-8.526,6.92L-8.526,2.361L-6.92,2.384L-5.745,1.191L-4.669,0L-4.052,0.913L-3.555,1.65L0,6.92Z" style="fill-rule:nonzero;"/>
        </g>
    </g>
    <g transform="matrix(1,0,0,1,-42.488,-179.145)">
        <g transform="matrix(12,0,0,12,51.6171,270.661)">
            <path d="M0.076,-0.667L0.287,-0.667C0.332,-0.667 0.37,-0.661 0.4,-0.648C0.429,-0.635 0.453,-0.619 0.471,-0.6C0.488,-0.581 0.501,-0.559 0.508,-0.535C0.515,-0.511 0.518,-0.488 0.518,-0.465C0.518,-0.432 0.512,-0.402 0.501,-0.377C0.49,-0.352 0.474,-0.331 0.454,-0.314C0.434,-0.297 0.41,-0.284 0.383,-0.275C0.355,-0.266 0.325,-0.262 0.292,-0.262L0.171,-0.262L0.171,-0L0.076,-0L0.076,-0.667ZM0.291,-0.344C0.332,-0.344 0.364,-0.355 0.387,-0.376C0.409,-0.397 0.42,-0.426 0.42,-0.463C0.42,-0.501 0.409,-0.531 0.386,-0.553C0.363,-0.574 0.331,-0.585 0.291,-0.585L0.171,-0.585L0.171,-0.344L0.291,-0.344Z" style="fill-rule:nonzero;"/>
        </g>
        <g transform="matrix(12,0,0,12,58.1811,270.661)">
            <path d="M0.061,-0.667L0.15,-0.667L0.15,-0.396C0.156,-0.404 0.163,-0.413 0.172,-0.422C0.181,-0.431 0.191,-0.44 0.204,-0.448C0.217,-0.456 0.231,-0.463 0.248,-0.468C0.265,-0.473 0.284,-0.476 0.305,-0.476C0.366,-0.476 0.411,-0.458 0.44,-0.423C0.469,-0.388 0.484,-0.34 0.484,-0.279L0.484,-0L0.394,-0L0.394,-0.272C0.394,-0.315 0.385,-0.347 0.366,-0.368C0.347,-0.388 0.321,-0.398 0.287,-0.398C0.261,-0.398 0.239,-0.393 0.222,-0.382C0.205,-0.371 0.191,-0.358 0.181,-0.341C0.17,-0.324 0.163,-0.304 0.158,-0.283C0.153,-0.261 0.151,-0.239 0.151,-0.216L0.151,-0L0.061,-0L0.061,-0.667Z" style="fill-rule:nonzero;"/>
        </g>
        <g transform="matrix(12,0,0,12,64.7091,270.661)">
            <path d="M0.352,-0.22C0.349,-0.221 0.344,-0.222 0.337,-0.223C0.329,-0.224 0.32,-0.224 0.31,-0.225C0.3,-0.226 0.289,-0.226 0.278,-0.227C0.267,-0.228 0.256,-0.228 0.245,-0.228C0.22,-0.228 0.199,-0.225 0.184,-0.219C0.168,-0.213 0.156,-0.206 0.147,-0.197C0.137,-0.188 0.131,-0.178 0.128,-0.167C0.125,-0.156 0.123,-0.145 0.123,-0.135C0.123,-0.11 0.132,-0.091 0.149,-0.078C0.166,-0.065 0.19,-0.058 0.221,-0.058C0.238,-0.058 0.255,-0.061 0.271,-0.067C0.286,-0.073 0.3,-0.081 0.312,-0.091C0.324,-0.101 0.334,-0.113 0.341,-0.126C0.348,-0.139 0.352,-0.153 0.352,-0.167L0.352,-0.22ZM0.353,-0.056C0.336,-0.033 0.313,-0.015 0.285,-0.004C0.256,0.007 0.227,0.013 0.197,0.013C0.178,0.013 0.159,0.011 0.14,0.006C0.121,0 0.103,-0.008 0.088,-0.02C0.072,-0.031 0.059,-0.046 0.05,-0.065C0.04,-0.083 0.035,-0.105 0.035,-0.132C0.035,-0.182 0.053,-0.222 0.088,-0.252C0.123,-0.282 0.173,-0.297 0.239,-0.297C0.25,-0.297 0.261,-0.297 0.273,-0.296C0.285,-0.295 0.296,-0.295 0.307,-0.294C0.318,-0.293 0.327,-0.293 0.335,-0.292C0.343,-0.291 0.349,-0.291 0.352,-0.29L0.352,-0.307C0.352,-0.342 0.341,-0.367 0.321,-0.382C0.3,-0.397 0.271,-0.404 0.235,-0.404C0.2,-0.404 0.172,-0.399 0.151,-0.39C0.13,-0.38 0.113,-0.37 0.099,-0.36L0.057,-0.421C0.065,-0.428 0.075,-0.434 0.086,-0.441C0.097,-0.448 0.111,-0.454 0.126,-0.46C0.141,-0.465 0.159,-0.47 0.178,-0.474C0.197,-0.477 0.22,-0.479 0.245,-0.479C0.305,-0.479 0.352,-0.464 0.387,-0.436C0.421,-0.407 0.438,-0.365 0.438,-0.312L0.438,-0.042C0.438,-0.025 0.438,-0.011 0.439,-0L0.355,-0L0.353,-0.056Z" style="fill-rule:nonzero;"/>
        </g>
        <g transform="matrix(12,0,0,12,70.7091,270.661)">
            <path d="M0.092,-0.117C0.109,-0.1 0.129,-0.087 0.152,-0.077C0.175,-0.067 0.202,-0.062 0.233,-0.062C0.263,-0.062 0.288,-0.067 0.308,-0.077C0.328,-0.086 0.338,-0.101 0.338,-0.122C0.338,-0.133 0.336,-0.142 0.332,-0.15C0.327,-0.157 0.32,-0.164 0.31,-0.17C0.299,-0.176 0.286,-0.182 0.269,-0.187C0.252,-0.192 0.23,-0.197 0.205,-0.203C0.187,-0.207 0.169,-0.212 0.152,-0.219C0.134,-0.226 0.118,-0.235 0.104,-0.246C0.09,-0.257 0.079,-0.27 0.07,-0.286C0.061,-0.301 0.057,-0.32 0.057,-0.342C0.057,-0.365 0.062,-0.385 0.073,-0.402C0.083,-0.419 0.097,-0.433 0.114,-0.445C0.131,-0.456 0.151,-0.465 0.173,-0.471C0.194,-0.477 0.217,-0.48 0.24,-0.48C0.279,-0.48 0.313,-0.475 0.342,-0.465C0.37,-0.454 0.395,-0.44 0.416,-0.421L0.367,-0.359C0.353,-0.372 0.335,-0.382 0.315,-0.391C0.294,-0.4 0.269,-0.404 0.241,-0.404C0.212,-0.404 0.189,-0.399 0.172,-0.39C0.155,-0.381 0.146,-0.365 0.146,-0.344C0.146,-0.324 0.158,-0.309 0.181,-0.3C0.204,-0.29 0.234,-0.281 0.271,-0.272C0.293,-0.267 0.314,-0.261 0.333,-0.254C0.352,-0.247 0.368,-0.238 0.383,-0.227C0.397,-0.216 0.408,-0.202 0.417,-0.186C0.425,-0.17 0.429,-0.151 0.429,-0.128C0.429,-0.105 0.424,-0.084 0.413,-0.067C0.402,-0.049 0.388,-0.034 0.37,-0.022C0.352,-0.01 0.331,-0.001 0.308,0.005C0.285,0.011 0.26,0.014 0.235,0.014C0.147,0.014 0.081,-0.01 0.037,-0.057L0.092,-0.117Z" style="fill-rule:nonzero;"/>
        </g>
        <g transform="matrix(12,0,0,12,76.3851,270.661)">
            <path d="M0.286,0.014C0.25,0.014 0.217,0.008 0.187,-0.006C0.157,-0.019 0.131,-0.036 0.11,-0.059C0.088,-0.082 0.071,-0.108 0.059,-0.138C0.046,-0.167 0.04,-0.199 0.04,-0.233C0.04,-0.267 0.046,-0.299 0.059,-0.329C0.071,-0.358 0.088,-0.384 0.11,-0.407C0.131,-0.43 0.157,-0.448 0.187,-0.461C0.217,-0.474 0.25,-0.48 0.286,-0.48C0.321,-0.48 0.354,-0.474 0.384,-0.461C0.414,-0.448 0.44,-0.43 0.462,-0.407C0.484,-0.384 0.501,-0.358 0.514,-0.329C0.526,-0.299 0.532,-0.267 0.532,-0.233C0.532,-0.199 0.526,-0.167 0.514,-0.138C0.501,-0.108 0.484,-0.082 0.462,-0.059C0.44,-0.036 0.414,-0.019 0.384,-0.006C0.354,0.008 0.321,0.014 0.286,0.014ZM0.286,-0.064C0.31,-0.064 0.332,-0.069 0.351,-0.079C0.37,-0.088 0.387,-0.101 0.4,-0.117C0.413,-0.132 0.424,-0.15 0.431,-0.171C0.438,-0.191 0.441,-0.212 0.441,-0.233C0.441,-0.254 0.438,-0.274 0.431,-0.295C0.424,-0.315 0.413,-0.333 0.4,-0.349C0.386,-0.365 0.37,-0.378 0.351,-0.388C0.332,-0.397 0.31,-0.402 0.286,-0.402C0.262,-0.402 0.24,-0.397 0.221,-0.388C0.202,-0.378 0.185,-0.365 0.172,-0.35C0.159,-0.334 0.149,-0.316 0.142,-0.296C0.135,-0.275 0.131,-0.254 0.131,-0.233C0.131,-0.212 0.135,-0.191 0.142,-0.171C0.149,-0.151 0.159,-0.133 0.173,-0.117C0.186,-0.101 0.203,-0.088 0.222,-0.079C0.241,-0.069 0.262,-0.064 0.286,-0.064Z" style="fill-rule:nonzero;"/>
        </g>
        <g transform="matrix(12,0,0,12,83.2611,270.661)">
            <path d="M0.062,-0L0.062,-0.421C0.062,-0.435 0.062,-0.45 0.061,-0.465L0.147,-0.465L0.15,-0.39C0.155,-0.398 0.162,-0.407 0.171,-0.417C0.18,-0.426 0.19,-0.435 0.203,-0.443C0.215,-0.451 0.229,-0.458 0.246,-0.464C0.262,-0.469 0.281,-0.472 0.302,-0.472C0.312,-0.472 0.321,-0.471 0.33,-0.47C0.338,-0.469 0.346,-0.467 0.353,-0.464L0.333,-0.38C0.321,-0.385 0.306,-0.387 0.287,-0.387C0.268,-0.387 0.25,-0.383 0.234,-0.376C0.217,-0.369 0.203,-0.359 0.191,-0.346C0.179,-0.333 0.17,-0.317 0.163,-0.3C0.156,-0.283 0.152,-0.264 0.152,-0.245L0.152,-0L0.062,-0Z" style="fill-rule:nonzero;"/>
        </g>
    </g>
    <g transform="matrix(1,0,0,1,-42.488,-64.1585)">
        <g transform="matrix(12,0,0,12,53.9211,270.661)">
            <path d="M0.099,-0.667L0.191,-0.667L0.394,-0.32L0.597,-0.667L0.687,-0.667L0.718,-0L0.624,-0L0.602,-0.512L0.414,-0.197L0.366,-0.197L0.181,-0.508L0.158,-0L0.068,-0L0.099,-0.667Z" style="fill-rule:nonzero;"/>
        </g>
        <g transform="matrix(12,0,0,12,63.2571,270.661)">
            <path d="M0.352,-0.22C0.349,-0.221 0.344,-0.222 0.337,-0.223C0.329,-0.224 0.32,-0.224 0.31,-0.225C0.3,-0.226 0.289,-0.226 0.278,-0.227C0.267,-0.228 0.256,-0.228 0.245,-0.228C0.22,-0.228 0.199,-0.225 0.184,-0.219C0.168,-0.213 0.156,-0.206 0.147,-0.197C0.137,-0.188 0.131,-0.178 0.128,-0.167C0.125,-0.156 0.123,-0.145 0.123,-0.135C0.123,-0.11 0.132,-0.091 0.149,-0.078C0.166,-0.065 0.19,-0.058 0.221,-0.058C0.238,-0.058 0.255,-0.061 0.271,-0.067C0.286,-0.073 0.3,-0.081 0.312,-0.091C0.324,-0.101 0.334,-0.113 0.341,-0.126C0.348,-0.139 0.352,-0.153 0.352,-0.167L0.352,-0.22ZM0.353,-0.056C0.336,-0.033 0.313,-0.015 0.285,-0.004C0.256,0.007 0.227,0.013 0.197,0.013C0.178,0.013 0.159,0.011 0.14,0.006C0.121,0 0.103,-0.008 0.088,-0.02C0.072,-0.031 0.059,-0.046 0.05,-0.065C0.04,-0.083 0.035,-0.105 0.035,-0.132C0.035,-0.182 0.053,-0.222 0.088,-0.252C0.123,-0.282 0.173,-0.297 0.239,-0.297C0.25,-0.297 0.261,-0.297 0.273,-0.296C0.285,-0.295 0.296,-0.295 0.307,-0.294C0.318,-0.293 0.327,-0.293 0.335,-0.292C0.343,-0.291 0.349,-0.291 0.352,-0.29L0.352,-0.307C0.352,-0.342 0.341,-0.367 0.321,-0.382C0.3,-0.397 0.271,-0.404 0.235,-0.404C0.2,-0.404 0.172,-0.399 0.151,-0.39C0.13,-0.38 0.113,-0.37 0.099,-0.36L0.057,-0.421C0.065,-0.428 0.075,-0.434 0.086,-0.441C0.097,-0.448 0.111,-0.454 0.126,-0.46C0.141,-0.465 0.159,-0.47 0.178,-0.474C0.197,-0.477 0.22,-0.479 0.245,-0.479C0.305,-0.479 0.352,-0.464 0.387,-0.436C0.421,-0.407 0.438,-0.365 0.438,-0.312L0.438,-0.042C0.438,-0.025 0.438,-0.011 0.439,-0L0.355,-0L0.353,-0.056Z" style="fill-rule:nonzero;"/>
        </g>
        <g transform="matrix(12,0,0,12,69.2571,270.661)">
            <path d="M0.062,0.2L0.062,-0.418C0.062,-0.432 0.062,-0.448 0.061,-0.465L0.147,-0.465L0.15,-0.399C0.155,-0.405 0.161,-0.412 0.17,-0.421C0.179,-0.43 0.19,-0.438 0.203,-0.446C0.216,-0.454 0.231,-0.461 0.248,-0.467C0.265,-0.472 0.285,-0.475 0.308,-0.475C0.344,-0.475 0.375,-0.468 0.402,-0.455C0.428,-0.442 0.45,-0.424 0.467,-0.401C0.484,-0.378 0.497,-0.352 0.506,-0.323C0.514,-0.294 0.518,-0.263 0.518,-0.23C0.518,-0.188 0.511,-0.152 0.497,-0.121C0.482,-0.09 0.464,-0.065 0.441,-0.045C0.418,-0.025 0.392,-0.01 0.364,-0.001C0.335,0.009 0.307,0.014 0.28,0.014C0.249,0.014 0.224,0.011 0.205,0.005C0.186,-0.002 0.168,-0.009 0.151,-0.016L0.151,0.2L0.062,0.2ZM0.151,-0.101C0.162,-0.092 0.177,-0.084 0.197,-0.076C0.217,-0.068 0.242,-0.064 0.272,-0.064C0.295,-0.064 0.316,-0.068 0.335,-0.077C0.354,-0.085 0.37,-0.096 0.384,-0.112C0.397,-0.127 0.408,-0.144 0.415,-0.164C0.422,-0.184 0.426,-0.206 0.426,-0.23C0.426,-0.253 0.424,-0.274 0.419,-0.294C0.413,-0.314 0.406,-0.332 0.395,-0.347C0.384,-0.362 0.369,-0.375 0.352,-0.384C0.335,-0.393 0.313,-0.397 0.288,-0.397C0.256,-0.397 0.229,-0.388 0.206,-0.371C0.183,-0.353 0.167,-0.327 0.158,-0.293C0.155,-0.282 0.153,-0.271 0.152,-0.259C0.151,-0.246 0.151,-0.233 0.151,-0.22L0.151,-0.101Z" style="fill-rule:nonzero;"/>
        </g>
        <g transform="matrix(12,0,0,12,78.1491,270.661)">
            <path d="M0.242,-0.345L0.022,-0.667L0.138,-0.667L0.3,-0.424L0.46,-0.667L0.565,-0.667L0.351,-0.348L0.588,-0L0.473,-0L0.294,-0.269L0.115,-0L0.009,-0L0.242,-0.345Z" style="fill-rule:nonzero;"/>
        </g>
    </g>
    <g transform="matrix(1,0,0,1,-42.488,-3.44239)">
        <g transform="matrix(12,0,0,12,54.0471,270.661)">
            <path d="M0.099,-0.667L0.191,-0.667L0.394,-0.32L0.597,-0.667L0.687,-0.667L0.718,-0L0.624,-0L0.602,-0.512L0.414,-0.197L0.366,-0.197L0.181,-0.508L0.158,-0L0.068,-0L0.099,-0.667Z" style="fill-rule:nonzero;"/>
        </g>
        <g transform="matrix(12,0,0,12,63.3831,270.661)">
            <path d="M0.352,-0.22C0.349,-0.221 0.344,-0.222 0.337,-0.223C0.329,-0.224 0.32,-0.224 0.31,-0.225C0.3,-0.226 0.289,-0.226 0.278,-0.227C0.267,-0.228 0.256,-0.228 0.245,-0.228C0.22,-0.228 0.199,-0.225 0.184,-0.219C0.168,-0.213 0.156,-0.206 0.147,-0.197C0.137,-0.188 0.131,-0.178 0.128,-0.167C0.125,-0.156 0.123,-0.145 0.123,-0.135C0.123,-0.11 0.132,-0.091 0.149,-0.078C0.166,-0.065 0.19,-0.058 0.221,-0.058C0.238,-0.058 0.255,-0.061 0.271,-0.067C0.286,-0.073 0.3,-0.081 0.312,-0.091C0.324,-0.101 0.334,-0.113 0.341,-0.126C0.348,-0.139 0.352,-0.153 0.352,-0.167L0.352,-0.22ZM0.353,-0.056C0.336,-0.033 0.313,-0.015 0.285,-0.004C0.256,0.007 0.227,0.013 0.197,0.013C0.178,0.013 0.159,0.011 0.14,0.006C0.121,0 0.103,-0.008 0.088,-0.02C0.072,-0.031 0.059,-0.046 0.05,-0.065C0.04,-0.083 0.035,-0.105 0.035,-0.132C0.035,-0.182 0.053,-0.222 0.088,-0.252C0.123,-0.282 0.173,-0.297 0.239,-0.297C0.25,-0.297 0.261,-0.297 0.273,-0.296C0.285,-0.295 0.296,-0.295 0.307,-0.294C0.318,-0.293 0.327,-0.293 0.335,-0.292C0.343,-0.291 0.349,-0.291 0.352,-0.29L0.352,-0.307C0.352,-0.342 0.341,-0.367 0.321,-0.382C0.3,-0.397 0.271,-0.404 0.235,-0.404C0.2,-0.404 0.172,-0.399 0.151,-0.39C0.13,-0.38 0.113,-0.37 0.099,-0.36L0.057,-0.421C0.065,-0.428 0.075,-0.434 0.086,-0.441C0.097,-0.448 0.111,-0.454 0.126,-0.46C0.141,-0.465 0.159,-0.47 0.178,-0.474C0.197,-0.477 0.22,-0.479 0.245,-0.479C0.305,-0.479 0.352,-0.464 0.387,-0.436C0.421,-0.407 0.438,-0.365 0.438,-0.312L0.438,-0.042C0.438,-0.025 0.438,-0.011 0.439,-0L0.355,-0L0.353,-0.056Z" style="fill-rule:nonzero;"/>
        </g>
        <g transform="matrix(12,0,0,12,69.3831,270.661)">
            <path d="M0.062,0.2L0.062,-0.418C0.062,-0.432 0.062,-0.448 0.061,-0.465L0.147,-0.465L0.15,-0.399C0.155,-0.405 0.161,-0.412 0.17,-0.421C0.179,-0.43 0.19,-0.438 0.203,-0.446C0.216,-0.454 0.231,-0.461 0.248,-0.467C0.265,-0.472 0.285,-0.475 0.308,-0.475C0.344,-0.475 0.375,-0.468 0.402,-0.455C0.428,-0.442 0.45,-0.424 0.467,-0.401C0.484,-0.378 0.497,-0.352 0.506,-0.323C0.514,-0.294 0.518,-0.263 0.518,-0.23C0.518,-0.188 0.511,-0.152 0.497,-0.121C0.482,-0.09 0.464,-0.065 0.441,-0.045C0.418,-0.025 0.392,-0.01 0.364,-0.001C0.335,0.009 0.307,0.014 0.28,0.014C0.249,0.014 0.224,0.011 0.205,0.005C0.186,-0.002 0.168,-0.009 0.151,-0.016L0.151,0.2L0.062,0.2ZM0.151,-0.101C0.162,-0.092 0.177,-0.084 0.197,-0.076C0.217,-0.068 0.242,-0.064 0.272,-0.064C0.295,-0.064 0.316,-0.068 0.335,-0.077C0.354,-0.085 0.37,-0.096 0.384,-0.112C0.397,-0.127 0.408,-0.144 0.415,-0.164C0.422,-0.184 0.426,-0.206 0.426,-0.23C0.426,-0.253 0.424,-0.274 0.419,-0.294C0.413,-0.314 0.406,-0.332 0.395,-0.347C0.384,-0.362 0.369,-0.375 0.352,-0.384C0.335,-0.393 0.313,-0.397 0.288,-0.397C0.256,-0.397 0.229,-0.388 0.206,-0.371C0.183,-0.353 0.167,-0.327 0.158,-0.293C0.155,-0.282 0.153,-0.271 0.152,-0.259C0.151,-0.246 0.151,-0.233 0.151,-0.22L0.151,-0.101Z" style="fill-rule:nonzero;"/>
        </g>
        <g transform="matrix(12,0,0,12,78.2751,270.661)">
            <path d="M0.239,-0.298L0.009,-0.667L0.116,-0.667L0.29,-0.382L0.464,-0.667L0.567,-0.667L0.336,-0.298L0.336,-0L0.239,-0L0.239,-0.298Z" style="fill-rule:nonzero;"/>
        </g>
    </g>
    <g transform="matrix(1,0,0,1,-42.488,57.2737)">
        <g transform="matrix(12,0,0,12,53.0211,270.661)">
            <path d="M0.642,-0.117C0.635,-0.105 0.623,-0.091 0.608,-0.076C0.593,-0.061 0.574,-0.046 0.552,-0.033C0.53,-0.019 0.505,-0.007 0.476,0.002C0.447,0.011 0.416,0.016 0.381,0.016C0.332,0.016 0.287,0.007 0.246,-0.01C0.205,-0.027 0.17,-0.052 0.141,-0.083C0.112,-0.114 0.089,-0.15 0.073,-0.193C0.056,-0.235 0.048,-0.281 0.048,-0.331C0.048,-0.38 0.056,-0.425 0.073,-0.468C0.089,-0.511 0.112,-0.548 0.141,-0.58C0.17,-0.612 0.206,-0.637 0.247,-0.656C0.288,-0.674 0.333,-0.683 0.383,-0.683C0.418,-0.683 0.45,-0.679 0.478,-0.67C0.506,-0.661 0.531,-0.651 0.552,-0.638C0.572,-0.624 0.591,-0.61 0.606,-0.595C0.62,-0.58 0.633,-0.565 0.642,-0.551L0.574,-0.493C0.566,-0.504 0.557,-0.516 0.546,-0.529C0.535,-0.541 0.521,-0.552 0.506,-0.562C0.491,-0.572 0.473,-0.58 0.453,-0.587C0.433,-0.594 0.41,-0.597 0.384,-0.597C0.347,-0.597 0.315,-0.59 0.286,-0.576C0.257,-0.562 0.232,-0.543 0.212,-0.519C0.191,-0.495 0.176,-0.467 0.165,-0.435C0.154,-0.403 0.149,-0.369 0.149,-0.333C0.149,-0.297 0.155,-0.263 0.166,-0.232C0.177,-0.2 0.192,-0.172 0.212,-0.149C0.232,-0.126 0.256,-0.107 0.285,-0.094C0.314,-0.081 0.346,-0.074 0.381,-0.074C0.411,-0.074 0.437,-0.078 0.459,-0.086C0.48,-0.093 0.498,-0.102 0.514,-0.113C0.529,-0.124 0.541,-0.134 0.551,-0.146C0.56,-0.157 0.568,-0.166 0.575,-0.173L0.642,-0.117Z" style="fill-rule:nonzero;"/>
        </g>
        <g transform="matrix(12,0,0,12,61.1571,270.661)">
            <path d="M0.061,-0.667L0.15,-0.667L0.15,-0.396C0.156,-0.404 0.163,-0.413 0.172,-0.422C0.181,-0.431 0.191,-0.44 0.204,-0.448C0.217,-0.456 0.231,-0.463 0.248,-0.468C0.265,-0.473 0.284,-0.476 0.305,-0.476C0.366,-0.476 0.411,-0.458 0.44,-0.423C0.469,-0.388 0.484,-0.34 0.484,-0.279L0.484,-0L0.394,-0L0.394,-0.272C0.394,-0.315 0.385,-0.347 0.366,-0.368C0.347,-0.388 0.321,-0.398 0.287,-0.398C0.261,-0.398 0.239,-0.393 0.222,-0.382C0.205,-0.371 0.191,-0.358 0.181,-0.341C0.17,-0.324 0.163,-0.304 0.158,-0.283C0.153,-0.261 0.151,-0.239 0.151,-0.216L0.151,-0L0.061,-0L0.061,-0.667Z" style="fill-rule:nonzero;"/>
        </g>
        <g transform="matrix(12,0,0,12,67.6851,270.661)">
            <path d="M0.352,-0.22C0.349,-0.221 0.344,-0.222 0.337,-0.223C0.329,-0.224 0.32,-0.224 0.31,-0.225C0.3,-0.226 0.289,-0.226 0.278,-0.227C0.267,-0.228 0.256,-0.228 0.245,-0.228C0.22,-0.228 0.199,-0.225 0.184,-0.219C0.168,-0.213 0.156,-0.206 0.147,-0.197C0.137,-0.188 0.131,-0.178 0.128,-0.167C0.125,-0.156 0.123,-0.145 0.123,-0.135C0.123,-0.11 0.132,-0.091 0.149,-0.078C0.166,-0.065 0.19,-0.058 0.221,-0.058C0.238,-0.058 0.255,-0.061 0.271,-0.067C0.286,-0.073 0.3,-0.081 0.312,-0.091C0.324,-0.101 0.334,-0.113 0.341,-0.126C0.348,-0.139 0.352,-0.153 0.352,-0.167L0.352,-0.22ZM0.353,-0.056C0.336,-0.033 0.313,-0.015 0.285,-0.004C0.256,0.007 0.227,0.013 0.197,0.013C0.178,0.013 0.159,0.011 0.14,0.006C0.121,0 0.103,-0.008 0.088,-0.02C0.072,-0.031 0.059,-0.046 0.05,-0.065C0.04,-0.083 0.035,-0.105 0.035,-0.132C0.035,-0.182 0.053,-0.222 0.088,-0.252C0.123,-0.282 0.173,-0.297 0.239,-0.297C0.25,-0.297 0.261,-0.297 0.273,-0.296C0.285,-0.295 0.296,-0.295 0.307,-0.294C0.318,-0.293 0.327,-0.293 0.335,-0.292C0.343,-0.291 0.349,-0.291 0.352,-0.29L0.352,-0.307C0.352,-0.342 0.341,-0.367 0.321,-0.382C0.3,-0.397 0.271,-0.404 0.235,-0.404C0.2,-0.404 0.172,-0.399 0.151,-0.39C0.13,-0.38 0.113,-0.37 0.099,-0.36L0.057,-0.421C0.065,-0.428 0.075,-0.434 0.086,-0.441C0.097,-0.448 0.111,-0.454 0.126,-0.46C0.141,-0.465 0.159,-0.47 0.178,-0.474C0.197,-0.477 0.22,-0.479 0.245,-0.479C0.305,-0.479 0.352,-0.464 0.387,-0.436C0.421,-0.407 0.438,-0.365 0.438,-0.312L0.438,-0.042C0.438,-0.025 0.438,-0.011 0.439,-0L0.355,-0L0.353,-0.056Z" style="fill-rule:nonzero;"/>
        </g>
        <g transform="matrix(12,0,0,12,73.6851,270.661)">
            <path d="M0.286,0.014C0.25,0.014 0.217,0.008 0.187,-0.006C0.157,-0.019 0.131,-0.036 0.11,-0.059C0.088,-0.082 0.071,-0.108 0.059,-0.138C0.046,-0.167 0.04,-0.199 0.04,-0.233C0.04,-0.267 0.046,-0.299 0.059,-0.329C0.071,-0.358 0.088,-0.384 0.11,-0.407C0.131,-0.43 0.157,-0.448 0.187,-0.461C0.217,-0.474 0.25,-0.48 0.286,-0.48C0.321,-0.48 0.354,-0.474 0.384,-0.461C0.414,-0.448 0.44,-0.43 0.462,-0.407C0.484,-0.384 0.501,-0.358 0.514,-0.329C0.526,-0.299 0.532,-0.267 0.532,-0.233C0.532,-0.199 0.526,-0.167 0.514,-0.138C0.501,-0.108 0.484,-0.082 0.462,-0.059C0.44,-0.036 0.414,-0.019 0.384,-0.006C0.354,0.008 0.321,0.014 0.286,0.014ZM0.286,-0.064C0.31,-0.064 0.332,-0.069 0.351,-0.079C0.37,-0.088 0.387,-0.101 0.4,-0.117C0.413,-0.132 0.424,-0.15 0.431,-0.171C0.438,-0.191 0.441,-0.212 0.441,-0.233C0.441,-0.254 0.438,-0.274 0.431,-0.295C0.424,-0.315 0.413,-0.333 0.4,-0.349C0.386,-0.365 0.37,-0.378 0.351,-0.388C0.332,-0.397 0.31,-0.402 0.286,-0.402C0.262,-0.402 0.24,-0.397 0.221,-0.388C0.202,-0.378 0.185,-0.365 0.172,-0.35C0.159,-0.334 0.149,-0.316 0.142,-0.296C0.135,-0.275 0.131,-0.254 0.131,-0.233C0.131,-0.212 0.135,-0.191 0.142,-0.171C0.149,-0.151 0.159,-0.133 0.173,-0.117C0.186,-0.101 0.203,-0.088 0.222,-0.079C0.241,-0.069 0.262,-0.064 0.286,-0.064Z" style="fill-rule:nonzero;"/>
        </g>
        <g transform="matrix(12,0,0,12,80.5611,270.661)">
            <path d="M0.092,-0.117C0.109,-0.1 0.129,-0.087 0.152,-0.077C0.175,-0.067 0.202,-0.062 0.233,-0.062C0.263,-0.062 0.288,-0.067 0.308,-0.077C0.328,-0.086 0.338,-0.101 0.338,-0.122C0.338,-0.133 0.336,-0.142 0.332,-0.15C0.327,-0.157 0.32,-0.164 0.31,-0.17C0.299,-0.176 0.286,-0.182 0.269,-0.187C0.252,-0.192 0.23,-0.197 0.205,-0.203C0.187,-0.207 0.169,-0.212 0.152,-0.219C0.134,-0.226 0.118,-0.235 0.104,-0.246C0.09,-0.257 0.079,-0.27 0.07,-0.286C0.061,-0.301 0.057,-0.32 0.057,-0.342C0.057,-0.365 0.062,-0.385 0.073,-0.402C0.083,-0.419 0.097,-0.433 0.114,-0.445C0.131,-0.456 0.151,-0.465 0.173,-0.471C0.194,-0.477 0.217,-0.48 0.24,-0.48C0.279,-0.48 0.313,-0.475 0.342,-0.465C0.37,-0.454 0.395,-0.44 0.416,-0.421L0.367,-0.359C0.353,-0.372 0.335,-0.382 0.315,-0.391C0.294,-0.4 0.269,-0.404 0.241,-0.404C0.212,-0.404 0.189,-0.399 0.172,-0.39C0.155,-0.381 0.146,-0.365 0.146,-0.344C0.146,-0.324 0.158,-0.309 0.181,-0.3C0.204,-0.29 0.234,-0.281 0.271,-0.272C0.293,-0.267 0.314,-0.261 0.333,-0.254C0.352,-0.247 0.368,-0.238 0.383,-0.227C0.397,-0.216 0.408,-0.202 0.417,-0.186C0.425,-0.17 0.429,-0.151 0.429,-0.128C0.429,-0.105 0.424,-0.084 0.413,-0.067C0.402,-0.049 0.388,-0.034 0.37,-0.022C0.352,-0.01 0.331,-0.001 0.308,0.005C0.285,0.011 0.26,0.014 0.235,0.014C0.147,0.014 0.081,-0.01 0.037,-0.057L0.092,-0.117Z" style="fill-rule:nonzero;"/>
        </g>
    </g>
    <g transform="matrix(1,0,0,1,55.7458,-20.0015)">
        <g transform="matrix(12,0,0,12,48.3422,270.661)">
            <path d="M0.076,-0.667L0.495,-0.667L0.495,-0.581L0.172,-0.581L0.172,-0.377L0.418,-0.377L0.418,-0.292L0.172,-0.292L0.172,-0L0.076,-0L0.076,-0.667Z" style="fill-rule:nonzero;"/>
        </g>
        <g transform="matrix(12,0,0,12,54.3422,270.661)">
            <path d="M0.06,-0.649L0.161,-0.649L0.161,-0.548L0.06,-0.548L0.06,-0.649ZM0.066,-0.465L0.156,-0.465L0.156,-0L0.066,-0L0.066,-0.465Z" style="fill-rule:nonzero;"/>
        </g>
        <g transform="matrix(12,0,0,12,57.0182,270.661)">
            <rect x="0.062" y="-0.667" width="0.09" height="0.667" style="fill-rule:nonzero;"/>
        </g>
        <g transform="matrix(12,0,0,12,59.5982,270.661)">
            <rect x="0.062" y="-0.667" width="0.09" height="0.667" style="fill-rule:nonzero;"/>
        </g>
    </g>
    <g transform="matrix(1,0,0,1,55.7458,18.2069)">
        <g transform="matrix(12,0,0,12,45.5522,270.661)">
            <path d="M0.263,-0.583L0.024,-0.583L0.024,-0.667L0.597,-0.667L0.597,-0.583L0.359,-0.583L0.359,-0L0.263,-0L0.263,-0.583Z" style="fill:white;fill-rule:nonzero;"/>
        </g>
        <g transform="matrix(12,0,0,12,51.3362,270.661)">
            <path d="M0.062,-0L0.062,-0.421C0.062,-0.435 0.062,-0.45 0.061,-0.465L0.147,-0.465L0.15,-0.39C0.155,-0.398 0.162,-0.407 0.171,-0.417C0.18,-0.426 0.19,-0.435 0.203,-0.443C0.215,-0.451 0.229,-0.458 0.246,-0.464C0.262,-0.469 0.281,-0.472 0.302,-0.472C0.312,-0.472 0.321,-0.471 0.33,-0.47C0.338,-0.469 0.346,-0.467 0.353,-0.464L0.333,-0.38C0.321,-0.385 0.306,-0.387 0.287,-0.387C0.268,-0.387 0.25,-0.383 0.234,-0.376C0.217,-0.369 0.203,-0.359 0.191,-0.346C0.179,-0.333 0.17,-0.317 0.163,-0.3C0.156,-0.283 0.152,-0.264 0.152,-0.245L0.152,-0L0.062,-0Z" style="fill:white;fill-rule:nonzero;"/>
        </g>
        <g transform="matrix(12,0,0,12,55.7162,270.661)">
            <path d="M0.06,-0.649L0.161,-0.649L0.161,-0.548L0.06,-0.548L0.06,-0.649ZM0.066,-0.465L0.156,-0.465L0.156,-0L0.066,-0L0.066,-0.465Z" style="fill:white;fill-rule:nonzero;"/>
        </g>
        <g transform="matrix(12,0,0,12,58.3922,270.661)">
            <path d="M0.396,-0.383C0.39,-0.385 0.38,-0.388 0.366,-0.392C0.351,-0.395 0.33,-0.397 0.301,-0.397C0.276,-0.397 0.253,-0.393 0.232,-0.385C0.211,-0.376 0.194,-0.365 0.179,-0.35C0.164,-0.335 0.152,-0.317 0.144,-0.296C0.135,-0.275 0.131,-0.253 0.131,-0.228C0.131,-0.207 0.134,-0.187 0.139,-0.168C0.143,-0.149 0.152,-0.133 0.163,-0.119C0.173,-0.105 0.187,-0.094 0.204,-0.086C0.221,-0.078 0.241,-0.074 0.265,-0.074C0.287,-0.074 0.306,-0.077 0.323,-0.084C0.34,-0.091 0.353,-0.099 0.364,-0.111C0.375,-0.122 0.383,-0.134 0.388,-0.148C0.393,-0.161 0.396,-0.175 0.396,-0.19L0.396,-0.383ZM0.124,0.095C0.139,0.106 0.158,0.115 0.181,0.123C0.203,0.13 0.23,0.134 0.262,0.134C0.307,0.134 0.34,0.122 0.362,0.097C0.384,0.072 0.395,0.04 0.395,-0L0.395,-0.057C0.39,-0.053 0.384,-0.048 0.377,-0.041C0.369,-0.034 0.359,-0.027 0.348,-0.021C0.336,-0.014 0.322,-0.008 0.306,-0.004C0.29,0.002 0.272,0.004 0.251,0.004C0.217,0.004 0.187,-0.002 0.161,-0.014C0.134,-0.025 0.112,-0.041 0.094,-0.062C0.076,-0.082 0.062,-0.106 0.053,-0.135C0.044,-0.163 0.039,-0.194 0.039,-0.227C0.039,-0.263 0.045,-0.296 0.058,-0.327C0.071,-0.357 0.089,-0.383 0.112,-0.406C0.134,-0.428 0.162,-0.445 0.194,-0.458C0.226,-0.47 0.262,-0.476 0.301,-0.476C0.339,-0.476 0.374,-0.473 0.407,-0.466C0.44,-0.459 0.466,-0.452 0.486,-0.444L0.486,-0C0.486,0.067 0.466,0.12 0.428,0.157C0.389,0.194 0.334,0.212 0.263,0.212C0.216,0.212 0.178,0.207 0.15,0.197C0.122,0.186 0.099,0.174 0.082,0.161L0.124,0.095Z" style="fill:white;fill-rule:nonzero;"/>
        </g>
    </g>
    <g transform="matrix(1,0,0,1,55.7458,53.1423)">
        <g transform="matrix(12,0,0,12,45.4802,270.661)">
            <path d="M0.271,-0.667L0.369,-0.667L0.63,-0L0.523,-0L0.454,-0.186L0.18,-0.186L0.111,-0L0.01,-0L0.271,-0.667ZM0.425,-0.267L0.317,-0.56L0.208,-0.267L0.425,-0.267Z" style="fill:white;fill-rule:nonzero;"/>
        </g>
        <g transform="matrix(12,0,0,12,53.1842,270.661)">
            <path d="M0.466,-0.064C0.445,-0.041 0.42,-0.022 0.39,-0.008C0.359,0.007 0.324,0.014 0.284,0.014C0.247,0.014 0.213,0.008 0.183,-0.005C0.152,-0.017 0.127,-0.034 0.106,-0.056C0.085,-0.077 0.068,-0.103 0.057,-0.134C0.046,-0.164 0.04,-0.197 0.04,-0.233C0.04,-0.267 0.046,-0.299 0.058,-0.329C0.07,-0.359 0.087,-0.385 0.109,-0.408C0.13,-0.43 0.156,-0.448 0.186,-0.461C0.215,-0.474 0.248,-0.48 0.284,-0.48C0.323,-0.48 0.358,-0.473 0.388,-0.459C0.418,-0.445 0.444,-0.426 0.465,-0.402L0.406,-0.345C0.392,-0.362 0.375,-0.376 0.355,-0.386C0.335,-0.396 0.311,-0.401 0.284,-0.401C0.26,-0.401 0.239,-0.397 0.22,-0.388C0.201,-0.379 0.185,-0.366 0.172,-0.351C0.159,-0.335 0.149,-0.317 0.142,-0.297C0.135,-0.276 0.131,-0.255 0.131,-0.233C0.131,-0.212 0.135,-0.191 0.142,-0.171C0.149,-0.15 0.159,-0.132 0.172,-0.117C0.185,-0.101 0.201,-0.088 0.22,-0.079C0.239,-0.07 0.26,-0.065 0.284,-0.065C0.311,-0.065 0.336,-0.07 0.358,-0.081C0.379,-0.091 0.397,-0.105 0.411,-0.122L0.466,-0.064Z" style="fill:white;fill-rule:nonzero;"/>
        </g>
        <g transform="matrix(12,0,0,12,59.1122,270.661)">
            <path d="M0.466,-0.064C0.445,-0.041 0.42,-0.022 0.39,-0.008C0.359,0.007 0.324,0.014 0.284,0.014C0.247,0.014 0.213,0.008 0.183,-0.005C0.152,-0.017 0.127,-0.034 0.106,-0.056C0.085,-0.077 0.068,-0.103 0.057,-0.134C0.046,-0.164 0.04,-0.197 0.04,-0.233C0.04,-0.267 0.046,-0.299 0.058,-0.329C0.07,-0.359 0.087,-0.385 0.109,-0.408C0.13,-0.43 0.156,-0.448 0.186,-0.461C0.215,-0.474 0.248,-0.48 0.284,-0.48C0.323,-0.48 0.358,-0.473 0.388,-0.459C0.418,-0.445 0.444,-0.426 0.465,-0.402L0.406,-0.345C0.392,-0.362 0.375,-0.376 0.355,-0.386C0.335,-0.396 0.311,-0.401 0.284,-0.401C0.26,-0.401 0.239,-0.397 0.22,-0.388C0.201,-0.379 0.185,-0.366 0.172,-0.351C0.159,-0.335 0.149,-0.317 0.142,-0.297C0.135,-0.276 0.131,-0.255 0.131,-0.233C0.131,-0.212 0.135,-0.191 0.142,-0.171C0.149,-0.15 0.159,-0.132 0.172,-0.117C0.185,-0.101 0.201,-0.088 0.22,-0.079C0.239,-0.07 0.26,-0.065 0.284,-0.065C0.311,-0.065 0.336,-0.07 0.358,-0.081C0.379,-0.091 0.397,-0.105 0.411,-0.122L0.466,-0.064Z" style="fill:white;fill-rule:nonzero;"/>
        </g>
    </g>
</svg>
